<?xml version="1.0" standalone="no"?>
<!DOCTYPE svg PUBLIC "-//W3C//DTD SVG 20010904//EN"
 "http://www.w3.org/TR/2001/REC-SVG-20010904/DTD/svg10.dtd">
<svg version="1.0" xmlns="http://www.w3.org/2000/svg"
 width="599.000000pt" height="599.000000pt" viewBox="0 0 599.000000 599.000000"
 preserveAspectRatio="xMidYMid meet">
<metadata>
Created by potrace 1.11, written by Peter Selinger 2001-2013
</metadata>
<g transform="translate(0.000000,599.000000) scale(0.100000,-0.100000)"
fill="#000000" stroke="none">
<path d="M35 4688 c3 -7 0 -20 -5 -28 -9 -13 -11 -13 -20 0 -7 10 -10 -22 -10
-102 0 -104 2 -117 18 -117 9 0 34 -3 55 -5 23 -3 35 -1 32 4 -4 6 1 10 9 10
19 0 22 20 4 20 -7 1 -2 10 11 20 24 21 47 27 36 11 -9 -15 32 -23 54 -11 29
15 39 40 34 77 -5 28 -9 32 -42 35 -29 2 -37 8 -39 26 -3 18 -10 22 -43 22
-21 0 -39 5 -39 10 0 6 -7 10 -15 10 -9 0 -18 7 -21 15 -4 8 -10 15 -15 15 -4
0 -6 -6 -4 -12z m19 -223 c3 -8 1 -15 -4 -15 -6 0 -10 7 -10 15 0 8 2 15 4 15
2 0 6 -7 10 -15z"/>
<path d="M5952 4658 c-17 -17 -15 -39 3 -32 8 4 15 2 15 -3 0 -5 -15 -14 -32
-21 -18 -7 -44 -22 -58 -33 -14 -11 -19 -17 -11 -13 10 5 12 3 6 -5 -5 -8 -18
-11 -37 -7 -18 3 -27 2 -23 -4 3 -6 1 -10 -6 -10 -10 0 -10 -3 -1 -12 8 -8 -2
-19 -41 -42 -36 -22 -58 -44 -73 -73 -11 -24 -23 -40 -27 -37 -3 3 -8 -9 -12
-26 -4 -17 -13 -34 -21 -37 -8 -3 -14 -15 -12 -27 2 -13 -3 -21 -12 -22 -33
-2 -40 -4 -39 -11 3 -19 -2 -33 -11 -33 -5 0 -7 7 -4 15 8 20 -3 19 -24 -2 -9
-9 -16 -26 -16 -37 1 -15 0 -16 -3 -3 -6 22 -10 22 -50 -9 -20 -15 -32 -32
-29 -40 3 -9 -1 -14 -13 -14 -10 0 -26 -11 -35 -25 -9 -14 -23 -25 -31 -25 -7
0 -21 -10 -30 -22 -8 -13 -19 -21 -23 -18 -4 3 -8 -5 -10 -18 -3 -17 -8 -21
-23 -17 -10 4 -19 2 -19 -3 0 -5 -16 -26 -35 -46 -19 -21 -35 -43 -35 -51 0
-7 -7 -12 -16 -11 -9 0 -18 -6 -19 -16 -4 -22 -24 -56 -25 -40 0 10 -3 10 -13
0 -8 -7 -12 -22 -9 -33 5 -18 4 -18 -11 -6 -11 8 -17 9 -17 3 0 -6 -6 -9 -14
-6 -14 5 -73 -56 -129 -133 -32 -45 -53 -56 -45 -25 5 17 3 17 -28 3 -19 -8
-34 -21 -34 -28 0 -7 -7 -13 -15 -13 -9 0 -18 -7 -21 -15 -4 -8 -12 -15 -19
-15 -9 0 -12 -10 -10 -30 2 -16 0 -32 -6 -35 -5 -4 -9 10 -9 30 0 25 -5 37
-17 41 -10 3 -26 10 -35 15 -28 14 -41 11 -24 -7 9 -8 14 -20 11 -25 -4 -5 8
-9 25 -9 25 0 31 -3 26 -16 -3 -9 -6 -22 -6 -30 0 -8 -8 -14 -17 -14 -10 0
-26 -6 -35 -14 -14 -10 -15 -15 -5 -25 10 -11 8 -12 -11 -6 -15 4 -24 2 -28
-9 -3 -8 -12 -12 -20 -9 -10 4 -14 -3 -14 -22 0 -17 -4 -25 -12 -22 -19 6 -50
-12 -42 -25 4 -6 -1 -17 -10 -24 -10 -7 -17 -15 -17 -18 2 -17 -1 -23 -22 -48
-12 -14 -29 -36 -37 -48 -8 -12 -32 -31 -53 -41 -21 -11 -40 -26 -44 -34 -3
-8 -13 -15 -23 -15 -9 0 -25 -9 -35 -20 -10 -11 -24 -20 -32 -20 -16 0 -16 5
-2 31 7 15 7 24 -1 34 -9 11 -5 21 18 47 26 27 30 39 28 72 -2 24 2 47 9 56 8
8 14 20 15 25 1 6 12 22 26 37 13 15 24 32 24 38 0 5 5 10 11 10 8 0 8 4 0 14
-6 7 -8 22 -4 31 5 15 2 17 -15 13 -27 -7 -37 5 -18 21 17 14 56 -5 56 -26 0
-7 5 -13 11 -13 5 0 7 5 4 11 -4 5 0 18 8 27 19 23 29 52 17 52 -6 0 -10 -5
-10 -11 0 -6 -8 -8 -19 -4 -11 3 -22 1 -26 -5 -3 -5 -15 -10 -25 -10 -10 0
-25 -7 -34 -15 -16 -16 -46 -20 -46 -6 0 5 11 16 25 25 27 18 34 46 10 46 -8
0 -19 9 -25 20 -6 11 -19 20 -29 20 -10 0 -24 7 -31 15 -14 17 -50 20 -50 5 0
-5 9 -10 19 -10 16 0 19 -7 19 -31 -1 -27 -3 -30 -13 -16 -7 9 -15 14 -18 11
-3 -3 -10 4 -17 15 -6 12 -15 19 -21 16 -5 -4 -12 1 -15 9 -3 9 -10 13 -16 10
-5 -3 -8 2 -6 12 4 21 -28 32 -45 15 -8 -8 -6 -11 6 -11 9 0 17 -6 17 -13 0
-8 9 -24 20 -37 22 -25 26 -45 10 -55 -5 -3 -7 0 -4 9 4 10 0 14 -15 13 -25
-2 -26 -6 -4 -57 11 -25 24 -40 36 -40 13 0 37 -34 37 -54 0 -7 -46 -3 -57 6
-7 5 -19 8 -28 4 -8 -3 -14 0 -12 7 1 7 -5 10 -13 8 -57 -15 -60 -14 -60 12 0
33 -26 48 -56 35 -28 -13 -31 -78 -3 -78 31 0 49 -12 49 -33 0 -16 3 -18 12
-9 9 9 18 6 40 -15 31 -30 36 -51 13 -59 -8 -4 -15 -11 -15 -17 0 -6 -7 -18
-16 -28 -17 -19 -10 -43 11 -35 7 2 15 -4 18 -15 3 -12 0 -19 -9 -19 -8 0 -14
-10 -14 -22 0 -18 -11 -28 -49 -45 -27 -12 -66 -23 -87 -24 -41 -3 -67 -22
-78 -57 -4 -12 -12 -22 -17 -22 -5 0 -9 -4 -9 -10 0 -5 7 -7 16 -3 14 5 14 3
2 -18 -14 -26 -57 -63 -73 -65 -19 -2 -45 -16 -45 -25 0 -4 7 -6 16 -2 13 5
15 2 10 -15 -6 -18 -2 -23 24 -29 16 -4 30 -11 30 -15 0 -5 0 -15 0 -23 0 -20
-19 -19 -43 2 -11 10 -17 13 -14 6 4 -7 -1 -14 -14 -18 -24 -8 -24 -7 -33 23
-6 17 -3 24 13 30 19 7 19 8 -5 19 -13 6 -24 7 -24 2 0 -5 -11 -14 -25 -19
-14 -5 -25 -14 -25 -20 0 -5 -5 -10 -11 -10 -7 0 -5 9 5 24 15 23 15 25 -6 32
-13 4 -24 2 -26 -4 -2 -6 -10 -8 -18 -5 -11 4 -12 9 -3 19 7 9 8 14 1 14 -6 0
-18 7 -26 16 -13 13 -20 13 -43 2 -16 -7 -28 -22 -29 -33 -3 -63 -5 -75 -20
-89 -21 -21 -31 -14 -32 23 0 21 3 28 13 25 17 -7 31 16 15 26 -7 4 -10 12 -6
18 8 14 -19 63 -30 53 -5 -5 -24 -13 -41 -19 -34 -11 -47 -4 -48 28 0 8 -6 16
-12 16 -7 1 -17 2 -22 3 -5 0 -7 10 -4 22 4 14 0 22 -14 25 -17 5 -15 10 19
46 21 23 38 49 38 59 0 9 5 19 12 21 6 2 9 12 5 21 -4 11 -12 14 -24 10 -16
-6 -16 -4 2 16 18 21 20 21 33 4 11 -15 14 -16 22 -4 4 8 4 24 0 37 -6 14 -5
26 0 29 12 7 -9 55 -24 55 -20 0 -47 40 -41 59 4 15 0 19 -20 19 -14 0 -25 -5
-25 -10 0 -6 -7 -8 -15 -4 -21 8 -19 -14 3 -31 9 -8 12 -12 5 -9 -6 4 -13 1
-15 -6 -3 -9 -10 -8 -26 3 -31 22 -85 13 -79 -12 3 -11 0 -19 -7 -19 -17 0
-46 33 -46 53 0 8 -10 19 -21 22 -12 4 -17 10 -11 14 6 3 14 19 17 34 4 15 11
29 15 32 11 6 35 -24 35 -44 0 -11 11 -17 38 -19 21 -2 37 1 37 7 0 6 -7 11
-15 11 -8 0 -15 7 -15 15 0 9 -11 20 -25 27 -32 14 -23 28 20 28 20 0 35 6 39
15 4 12 10 13 25 6 16 -9 18 -8 14 8 -3 12 3 24 16 33 19 14 20 16 6 28 -15
12 -15 14 -1 22 9 5 20 7 25 4 10 -7 24 22 16 34 -5 9 33 23 54 20 13 -1 13 1
2 14 -18 22 -81 22 -81 0 0 -9 -9 -18 -20 -21 -11 -3 -20 -9 -20 -12 0 -9 -26
-11 -62 -5 -19 4 -25 10 -21 20 3 9 12 13 21 9 15 -5 41 20 42 41 0 7 -7 14
-15 18 -18 7 -55 -27 -55 -50 0 -11 -6 -14 -21 -9 -19 6 -21 4 -16 -16 7 -30
-19 -71 -32 -50 -9 14 -31 7 -31 -10 0 -6 6 -7 13 -3 8 6 8 3 -1 -9 -8 -9 -11
-21 -7 -27 5 -8 0 -10 -13 -8 -12 2 -21 -1 -21 -7 0 -5 10 -9 22 -7 18 2 17 0
-8 -14 -16 -9 -53 -18 -81 -19 -28 -1 -55 -4 -60 -7 -9 -6 -57 -11 -82 -9 -14
1 -51 42 -51 56 0 5 -9 12 -20 16 -11 5 -25 17 -31 29 -10 19 -9 20 14 14 19
-4 26 -2 26 9 0 24 -26 27 -50 5 l-21 -20 -6 21 c-3 12 -12 21 -19 21 -17 0
-18 22 -3 37 7 7 3 12 -15 17 -14 3 -26 11 -26 17 0 6 -4 8 -9 4 -5 -3 -12 -1
-16 5 -11 18 -35 12 -28 -7 6 -16 5 -16 -10 -5 -15 13 -15 15 -1 30 15 14 14
17 -6 34 -22 18 -22 20 -6 36 13 14 18 14 25 4 6 -10 10 -9 14 7 3 12 1 21 -3
21 -5 0 -15 3 -23 6 -9 3 -16 -3 -20 -15 -3 -14 -13 -21 -30 -21 -19 0 -27 -7
-32 -27 -3 -15 -15 -33 -26 -41 -19 -13 -19 -14 2 -43 11 -16 22 -36 23 -44 4
-25 17 -30 22 -9 5 20 7 19 40 -10 28 -24 32 -32 19 -38 -8 -5 -15 -15 -15
-23 0 -7 -12 -15 -27 -17 -23 -2 -29 -9 -31 -32 -2 -19 2 -32 12 -38 14 -8 15
-25 1 -60 -4 -11 -3 -18 4 -18 6 0 11 -8 11 -19 0 -27 40 -73 57 -66 11 4 13
1 9 -11 -3 -8 -6 -18 -6 -20 0 -2 -7 -4 -15 -4 -8 0 -15 -5 -15 -11 0 -5 5 -7
10 -4 6 4 22 9 36 11 22 4 25 2 20 -12 -4 -10 1 -22 11 -30 24 -18 33 -17 33
1 0 8 -5 15 -11 15 -5 0 -8 4 -4 9 8 14 45 9 45 -6 0 -8 12 -13 29 -13 16 0
37 -7 46 -16 15 -16 15 -18 0 -33 -15 -15 -17 -15 -29 2 -14 19 -36 23 -36 7
0 -5 -7 -10 -15 -10 -22 0 -18 -17 5 -23 11 -3 20 -13 20 -22 0 -9 -4 -14 -9
-11 -5 4 -12 0 -14 -6 -4 -10 -6 -10 -6 -1 -1 7 -7 10 -15 7 -8 -3 -16 2 -19
13 -4 14 -5 14 -6 -4 0 -13 4 -23 9 -23 6 0 10 -4 10 -9 0 -9 -48 -26 -62 -23
-17 4 -7 -18 13 -28 11 -6 19 -16 16 -23 -6 -18 32 -49 54 -42 11 4 19 2 19
-4 0 -6 -5 -11 -10 -11 -6 0 -10 -6 -9 -12 5 -37 -3 -65 -22 -76 -17 -11 -23
-11 -32 1 -7 8 -24 17 -39 21 -19 4 -28 13 -28 26 0 11 5 20 10 20 6 0 10 -4
10 -10 0 -5 7 -10 15 -10 8 0 24 -5 35 -12 10 -7 23 -8 27 -4 4 5 2 11 -5 13
-7 3 -19 18 -28 34 -12 24 -19 29 -37 23 -12 -4 -28 -15 -35 -25 -14 -20 -62
-26 -62 -9 0 6 5 10 12 10 9 0 8 3 -1 13 -11 10 -14 10 -18 0 -3 -7 -16 -13
-29 -13 -15 0 -24 -6 -24 -15 0 -8 3 -14 8 -14 49 8 68 -16 32 -39 -15 -9 -18
-17 -11 -30 7 -12 3 -24 -12 -42 -14 -17 -18 -19 -14 -7 6 15 3 17 -15 11 -17
-5 -20 -3 -15 11 5 11 3 15 -5 12 -7 -2 -12 -10 -11 -16 2 -6 -2 -11 -7 -11
-6 0 -10 6 -10 13 0 8 -2 9 -8 1 -16 -24 -50 -26 -66 -3 -18 26 -32 20 -18 -8
9 -16 7 -19 -16 -18 -21 0 -31 -8 -44 -35 -17 -32 -18 -33 -18 -10 0 18 -3 21
-9 11 -7 -11 -11 -10 -20 7 -15 28 -14 32 8 32 25 0 32 22 12 37 -14 10 -14
13 3 32 11 12 26 21 34 21 12 0 12 3 2 15 -11 13 -10 18 6 31 18 14 18 15 -3
5 -12 -6 -29 -8 -39 -4 -12 4 -15 3 -10 -5 8 -14 0 -14 -29 -2 l-20 9 20 1
c19 1 19 1 1 15 -11 9 -15 18 -10 27 14 22 13 38 -2 38 -8 0 -14 -8 -14 -17 0
-15 -2 -14 -15 3 -12 17 -12 20 1 31 13 10 12 12 -8 18 -13 4 -35 19 -50 32
-71 66 -65 63 -65 31 0 -15 4 -28 9 -28 5 0 6 -4 3 -10 -3 -5 3 -10 14 -10 11
0 23 -4 26 -10 3 -5 0 -7 -9 -4 -12 5 -13 0 -7 -23 4 -15 16 -30 25 -31 11 -2
16 0 12 6 -3 6 -2 13 2 16 5 3 14 -6 21 -21 13 -28 6 -47 -9 -23 -7 12 -12 12
-21 3 -10 -10 -9 -16 4 -31 24 -26 21 -35 -8 -30 -31 6 -33 -5 -2 -20 20 -9
19 -10 -15 -10 -26 1 -35 5 -31 15 3 7 0 13 -7 13 -6 0 -9 4 -6 9 3 5 -1 12
-10 15 -12 5 -13 10 -6 19 13 15 -1 43 -16 33 -6 -4 -8 2 -5 14 3 11 1 20 -5
20 -6 0 -12 8 -14 17 -3 14 -8 12 -32 -10 -20 -19 -24 -27 -13 -27 8 0 18 6
20 13 4 9 8 9 15 -2 17 -24 -7 -63 -35 -58 -33 6 -38 -9 -14 -39 12 -15 21
-39 21 -53 0 -18 7 -30 22 -36 13 -6 24 -18 26 -27 3 -14 -3 -18 -26 -18 -26
0 -28 -2 -24 -31 5 -31 -17 -58 -47 -59 -10 0 -10 5 3 25 13 20 14 28 4 45
-14 22 -13 21 -43 25 -11 2 -28 6 -37 10 -21 8 -21 5 -8 -29 11 -31 -5 -45
-27 -24 -19 20 -58 11 -70 -15 -6 -13 -19 -21 -34 -22 -13 0 -25 -4 -27 -10
-4 -15 -51 -25 -85 -18 -35 7 -30 -12 7 -27 17 -7 12 -9 -23 -9 -27 -1 -52 -8
-64 -18 -19 -18 -20 -17 -13 10 4 17 2 27 -4 27 -6 0 -9 -4 -6 -9 8 -13 -36
-22 -50 -10 -6 5 -30 11 -52 13 -22 3 -50 9 -61 15 -32 18 -38 12 -11 -11 l25
-21 -28 7 c-17 4 -27 2 -27 -5 0 -6 -7 -8 -16 -5 -13 5 -15 1 -10 -19 5 -18 2
-25 -9 -25 -8 0 -17 1 -18 3 -9 6 -37 -27 -33 -38 3 -8 -2 -11 -14 -8 -10 3
-23 18 -29 34 -8 23 -16 29 -40 29 -16 0 -33 5 -37 12 -7 11 15 9 75 -8 19 -6
22 -4 19 12 -3 15 -12 19 -43 19 -22 0 -48 -6 -57 -14 -16 -12 -20 -12 -36 2
-20 19 -37 23 -27 7 3 -5 1 -10 -4 -10 -17 0 -13 -21 7 -36 16 -13 16 -15 -3
-29 -17 -14 -18 -17 -5 -25 8 -5 18 -10 23 -10 15 0 6 -22 -19 -45 -27 -25
-59 -36 -36 -13 16 16 15 31 -2 25 -21 -8 -49 17 -52 48 -3 24 -1 25 10 10 10
-14 16 -15 34 -6 21 11 21 13 6 36 -9 14 -20 25 -25 25 -5 0 -6 6 -3 14 4 10
-9 17 -47 25 -53 12 -75 7 -49 -10 13 -8 13 -10 0 -19 -12 -8 -16 -2 -20 33
-7 49 -4 57 16 57 8 0 14 4 14 9 0 4 -10 6 -23 4 -23 -5 -97 43 -95 62 1 23
-3 35 -12 35 -5 0 -7 -6 -4 -14 3 -8 1 -17 -5 -21 -6 -3 -11 -2 -11 3 0 6 -17
17 -37 25 -28 12 -33 17 -18 18 11 1 29 3 40 4 11 1 27 3 36 4 13 1 22 13 47
64 2 4 -10 7 -27 7 -17 0 -31 5 -31 10 0 6 5 10 11 10 5 0 7 5 4 10 -4 6 -11
8 -16 5 -5 -3 -6 1 -3 9 4 11 0 16 -12 16 -17 1 -17 2 -4 13 9 7 15 18 14 25
-1 6 -2 17 -3 23 0 5 -6 7 -13 3 -6 -4 -8 -3 -5 3 6 9 -57 73 -71 73 -3 0 -16
9 -28 21 -15 14 -39 22 -69 24 -25 2 -49 6 -52 9 -3 3 -17 3 -29 0 -13 -4 -24
-2 -24 2 0 17 15 29 35 29 16 0 20 6 18 31 -2 24 2 33 17 37 12 3 20 0 20 -8
0 -30 25 -60 48 -57 23 3 29 16 13 26 -5 4 -11 1 -13 -6 -4 -10 -9 -9 -21 3
-18 18 -13 31 9 22 8 -3 14 1 14 10 0 10 7 15 19 12 34 -6 11 36 -28 52 -20 8
-41 23 -48 33 -7 9 -26 23 -43 30 -40 17 -40 46 0 55 16 4 30 11 30 17 0 6 -6
8 -13 5 -7 -3 -21 9 -31 27 -10 17 -12 25 -5 19 18 -18 40 -16 67 6 13 12 20
25 16 35 -5 12 2 18 26 22 37 8 50 32 27 49 -10 7 -17 21 -17 33 0 23 -23 35
-39 19 -8 -8 -16 -5 -30 11 -11 13 -25 20 -34 16 -9 -3 -22 -2 -29 3 -9 5 -2
9 20 13 38 6 47 24 15 28 -12 2 -31 -6 -42 -17 -12 -12 -27 -21 -34 -21 -17 0
-56 29 -39 30 14 0 17 30 2 30 -5 0 -10 -4 -10 -10 0 -5 -7 -7 -16 -3 -11 4
-12 9 -5 16 6 6 11 14 11 17 0 9 -74 -1 -81 -12 -3 -5 -12 -2 -19 7 -10 12
-10 15 4 15 11 0 14 4 9 13 -4 6 -6 21 -4 32 2 16 0 17 -9 8 -10 -9 -16 -8
-27 3 -8 8 -24 14 -36 14 l-22 -1 22 -18 c22 -18 28 -61 8 -61 -12 0 -44 20
-32 20 11 0 -12 40 -23 40 -6 0 -5 -11 1 -27 7 -18 6 -28 -1 -33 -7 -4 -9
-124 -8 -376 3 -360 3 -369 23 -372 11 -2 27 -10 35 -17 28 -24 91 -55 101
-50 5 4 9 1 9 -4 0 -6 7 -11 16 -11 8 0 13 -4 9 -9 -6 -11 -61 3 -84 22 -20
16 -59 34 -89 40 l-22 5 2 -776 3 -776 22 -12 c25 -12 20 -24 -9 -24 -17 0
-18 -29 -18 -726 l0 -725 58 3 c56 3 57 4 55 31 -2 22 2 27 13 23 9 -3 27 -6
40 -6 14 0 22 -4 19 -10 -3 -5 -2 -18 4 -27 8 -16 10 -15 16 9 6 25 8 25 24
10 10 -10 16 -20 14 -25 -2 -4 455 -7 1017 -7 1126 0 1056 -4 1045 62 -8 51
-26 88 -42 88 -8 0 -11 -4 -8 -10 13 -21 -9 -9 -32 17 -16 19 -23 37 -20 54 2
20 0 26 -11 21 -10 -3 -13 0 -10 9 3 8 11 13 17 12 15 -4 14 14 -1 20 -10 4
-10 6 0 6 6 1 12 10 12 20 0 11 5 23 10 26 6 3 10 -3 10 -14 0 -11 -4 -22 -9
-26 -6 -3 -4 -21 4 -45 8 -22 12 -47 9 -54 -4 -10 0 -14 12 -12 29 4 44 64 26
101 -9 16 -18 32 -21 35 -9 8 -8 50 1 44 4 -3 8 4 8 15 0 12 5 21 10 21 6 0
10 -7 10 -16 0 -10 6 -14 15 -10 8 3 15 0 15 -7 1 -7 9 -1 20 11 25 30 45 24
45 -14 0 -18 5 -28 12 -27 7 2 13 -2 13 -7 0 -6 -6 -10 -12 -10 -10 0 -10 -2
-2 -8 8 -4 11 -37 10 -92 -2 -72 2 -92 21 -128 13 -24 23 -52 23 -62 0 -14 7
-18 29 -18 25 1 30 6 35 37 3 20 13 47 23 61 20 27 24 71 8 83 -6 4 -5 10 4
16 7 5 10 14 7 20 -4 6 -1 11 8 11 19 0 33 -23 18 -28 -15 -5 -16 -32 -1 -32
5 0 8 -4 4 -9 -3 -5 0 -13 6 -17 14 -8 48 33 49 59 0 19 20 24 20 5 0 -9 3 -9
9 1 15 23 44 5 37 -23 -3 -14 -3 -26 2 -29 4 -2 1 -2 -5 -1 -7 2 -13 -4 -13
-12 0 -11 7 -14 23 -10 12 3 17 3 10 0 -7 -3 -10 -11 -7 -19 3 -7 1 -16 -5
-20 -6 -3 -14 2 -18 12 -4 10 -15 24 -26 32 -10 7 -16 20 -12 28 5 14 3 14
-11 3 -9 -8 -14 -23 -11 -37 2 -13 0 -26 -4 -29 -5 -3 -9 2 -9 10 0 12 -5 14
-24 6 -13 -5 -27 -6 -30 -3 -3 4 -6 -8 -6 -25 0 -17 -4 -34 -10 -37 -5 -3 -10
-17 -10 -31 0 -34 36 -33 44 1 4 14 13 25 22 25 8 0 12 -4 9 -10 -3 -5 -1 -10
5 -10 7 0 9 -7 6 -16 -5 -12 1 -15 32 -12 26 2 38 8 40 21 4 21 37 57 52 57 6
0 15 11 21 24 6 13 20 27 30 29 15 4 19 0 19 -19 0 -15 -6 -24 -15 -24 -9 0
-15 -9 -15 -25 0 -16 6 -25 16 -25 9 0 14 -5 12 -12 -6 -17 -28 -22 -28 -6 0
7 -4 20 -10 28 -7 12 -13 9 -35 -15 -21 -25 -23 -31 -9 -33 9 -2 20 1 24 8 5
8 10 9 14 2 9 -15 686 -17 686 -2 0 5 -4 10 -10 10 -5 0 -10 9 -10 19 0 13 -9
21 -28 26 -30 6 -35 22 -26 82 4 24 10 33 24 33 11 0 20 5 20 11 0 5 -5 7 -11
4 -6 -4 -9 0 -7 11 2 10 -3 19 -9 20 -7 1 -16 2 -19 3 -4 0 1 12 9 25 15 23
15 24 -3 19 -11 -3 -20 0 -20 6 0 10 14 15 33 12 72 -12 80 -19 73 -62 -8 -49
16 -54 39 -10 8 16 20 31 27 33 13 5 -45 68 -63 68 -5 0 -12 7 -15 15 -4 8
-10 12 -15 9 -5 -3 -9 -1 -9 4 0 5 -17 17 -38 28 -20 10 -43 27 -50 36 -17 24
-32 23 -32 -2 0 -11 -4 -20 -10 -20 -5 0 -10 7 -10 15 0 8 -6 15 -14 15 -8 0
-16 5 -18 10 -2 6 -13 12 -25 12 -12 1 -19 7 -16 15 3 7 0 13 -7 13 -6 0 -8 4
-5 10 10 16 -7 11 -52 -14 -24 -14 -45 -20 -48 -15 -12 19 -26 8 -23 -18 2
-17 12 -32 26 -38 16 -7 22 -18 22 -44 0 -28 2 -32 14 -21 8 6 13 17 10 24 -3
7 7 18 21 24 21 10 25 10 19 0 -4 -7 2 -5 13 5 18 16 21 16 27 2 3 -10 -1 -18
-12 -22 -25 -9 -59 -45 -64 -68 -2 -11 -10 -19 -17 -17 -9 2 -11 -3 -7 -14 4
-11 2 -15 -8 -11 -10 4 -18 -2 -22 -16 -10 -33 -33 -52 -47 -38 -8 8 -8 11 1
11 7 0 12 15 12 39 0 21 7 55 16 76 15 36 15 37 -13 62 -16 16 -29 21 -31 14
-2 -6 -15 -11 -28 -11 -14 0 -22 4 -19 10 8 13 -16 13 -35 -1 -11 -8 -12 -12
-2 -16 6 -2 12 -11 12 -19 0 -8 6 -17 14 -20 8 -3 15 -13 15 -22 1 -31 7 -62
14 -68 9 -10 9 -24 0 -22 -14 3 -63 -21 -63 -31 0 -5 -7 -12 -16 -15 -19 -7
-74 20 -74 37 1 19 26 47 41 47 11 0 14 10 11 40 -5 48 -26 53 -59 13 -18 -22
-22 -24 -18 -8 4 16 3 15 -7 -3 -8 -16 -18 -22 -31 -18 -13 3 -17 0 -13 -9 3
-8 -4 -15 -17 -19 -40 -11 -49 -7 -42 17 5 19 4 20 -7 7 -14 -17 -36 -19 -56
-6 -7 4 -16 5 -20 1 -4 -4 -1 -10 6 -12 15 -6 16 -23 0 -23 -6 0 -20 -8 -31
-18 -11 -9 -17 -12 -14 -6 4 7 0 17 -8 24 -8 7 -15 19 -15 27 0 10 -7 14 -20
10 -11 -3 -20 -1 -20 4 0 5 5 9 11 9 5 0 7 5 4 10 -3 6 1 13 9 16 9 3 13 11 9
17 -3 6 -1 7 5 3 6 -4 23 -4 37 0 19 5 23 10 15 19 -5 6 -7 14 -4 17 10 10
-32 72 -53 78 -12 3 -19 12 -17 23 1 11 -4 17 -16 17 -27 0 -31 13 -19 50 9
23 9 34 0 43 -6 6 -11 19 -11 29 0 10 -4 18 -9 18 -5 0 -12 13 -16 30 -4 16
-11 32 -16 35 -5 4 -9 14 -9 24 0 10 -18 37 -40 61 -36 39 -85 118 -78 125 2
2 15 6 31 10 23 6 26 5 22 -11 -5 -15 -3 -14 11 3 9 13 25 23 35 23 10 0 21 6
25 12 4 7 4 10 -1 6 -4 -4 -14 -3 -22 4 -7 6 -16 8 -19 5 -11 -10 -34 21 -28
37 3 8 17 22 31 31 19 13 27 14 39 4 11 -9 18 -9 26 -1 12 12 41 5 33 -8 -9
-14 26 -19 111 -17 72 2 90 7 155 39 41 21 86 40 101 44 30 7 53 28 44 42 -3
4 8 6 24 4 37 -5 49 17 26 50 -18 25 -22 17 -6 -13 8 -15 7 -19 -5 -19 -8 0
-15 5 -15 11 0 7 -10 5 -25 -5 -14 -9 -25 -12 -25 -6 0 6 -11 15 -25 20 -14 5
-25 14 -25 19 0 5 -16 15 -35 21 -27 9 -43 9 -73 -1 -20 -7 -47 -12 -58 -10
-12 1 -28 -4 -35 -11 -17 -15 -34 -21 -69 -22 -14 -1 -28 -9 -32 -18 -9 -22
-28 -24 -28 -3 0 8 5 15 11 15 7 0 9 14 5 37 -3 21 -5 42 -6 47 0 5 -6 3 -14
-3 -11 -10 -23 -8 -55 8 -22 12 -47 21 -56 21 -8 0 -15 3 -15 8 0 4 -16 17
-34 30 -29 20 -38 22 -56 12 -12 -6 -25 -9 -28 -5 -10 10 40 45 66 45 12 0 22
5 22 11 0 5 5 7 10 4 6 -3 10 -1 10 4 0 6 -5 11 -11 11 -5 0 -7 5 -4 10 3 6
22 10 41 10 30 0 35 4 41 30 7 37 19 46 38 30 16 -14 16 -15 20 52 1 20 -1 41
-4 46 -3 5 -32 5 -66 1 -86 -10 -96 -13 -107 -32 -12 -22 -29 -22 -21 1 6 15
5 15 -10 4 -8 -8 -14 -19 -11 -26 6 -16 -32 -56 -54 -56 -14 1 -12 5 7 21 l25
20 -30 -7 c-34 -8 -42 -14 -58 -46 -6 -13 -23 -25 -36 -26 -14 -2 -29 -10 -33
-18 -4 -8 -20 -14 -35 -14 -23 -1 -25 -2 -9 -11 9 -5 17 -18 18 -27 0 -12 3
-10 10 6 11 29 31 24 40 -9 4 -13 7 -21 8 -17 1 4 13 1 27 -7 16 -8 41 -11 63
-7 34 5 35 5 18 -12 -21 -21 -22 -36 -2 -36 8 0 15 -5 15 -10 0 -6 8 -10 17
-8 11 2 23 -9 34 -31 9 -19 24 -40 33 -47 17 -12 16 -14 -3 -33 -13 -13 -16
-21 -8 -21 7 0 14 -11 15 -25 1 -16 -3 -25 -13 -25 -8 0 -15 -4 -15 -8 0 -5
-7 -9 -15 -9 -8 0 -15 9 -15 20 0 24 -8 19 -13 -9 -2 -10 -8 -29 -15 -41 -16
-30 -15 -43 6 -59 15 -12 13 -13 -21 -14 -45 0 -87 -25 -87 -51 0 -12 -5 -16
-15 -13 -8 4 -15 12 -15 20 0 8 -9 14 -20 14 -11 0 -20 -4 -20 -10 0 -5 7 -6
17 -3 11 4 14 3 9 -5 -4 -7 -13 -12 -20 -12 -6 0 -24 -6 -39 -12 -21 -10 -27
-20 -27 -45 0 -18 -4 -33 -10 -33 -5 0 -10 -7 -10 -15 0 -15 -9 -18 -47 -15
-12 1 -30 -3 -40 -9 -13 -7 -25 -5 -45 7 -16 9 -28 20 -28 25 0 4 5 5 10 2 6
-3 10 -2 10 3 0 13 -27 23 -44 16 -10 -4 -14 1 -12 19 2 18 -1 24 -10 20 -9
-3 -14 2 -14 16 0 12 -6 21 -14 21 -8 0 -21 2 -28 5 -8 3 -24 -4 -37 -16 -12
-12 -26 -17 -31 -13 -12 13 7 54 25 54 18 0 19 14 4 42 -9 17 -13 18 -20 7 -7
-12 -11 -11 -26 5 -17 18 -17 19 1 12 16 -6 17 -4 6 9 -8 9 -16 12 -19 6 -9
-14 -60 -8 -66 7 -3 9 -13 11 -27 6 -20 -6 -21 -5 -9 9 9 11 18 14 29 8 17
-10 52 -3 52 10 0 5 -11 11 -25 15 -15 4 -25 13 -25 25 0 12 -5 16 -15 13 -8
-4 -17 1 -21 10 -3 9 -14 16 -23 16 -14 1 -14 2 2 11 9 5 17 15 17 20 0 6 -5
7 -10 4 -6 -3 -10 1 -10 9 0 9 -11 16 -27 18 -23 2 -27 7 -25 28 2 14 10 29
18 33 9 5 12 16 9 28 -4 10 -2 19 4 19 13 0 10 43 -4 52 -17 12 -25 9 -19 -7
4 -8 1 -15 -5 -15 -6 0 -11 7 -11 16 0 8 -4 12 -10 9 -15 -9 -52 15 -46 30 3
10 -8 12 -49 10 -30 -2 -58 -6 -62 -8 -5 -3 -8 8 -8 24 0 16 5 29 11 29 15 0
10 75 -6 95 -13 16 -13 17 6 11 11 -3 37 0 57 9 20 8 43 12 51 9 22 -8 20 13
-1 25 -34 19 -2 24 48 8 57 -18 90 -10 122 30 11 14 29 23 46 23 24 0 29 5 34
32 3 18 8 42 12 53 5 16 5 17 -4 5 -16 -23 -22 -6 -10 28 8 24 17 32 35 32 15
0 24 -6 24 -16 0 -11 6 -15 19 -11 15 4 22 -2 30 -24 9 -28 11 -28 70 -24 47
3 59 1 55 -9 -4 -10 5 -13 34 -11 21 1 43 5 49 8 5 3 15 2 23 -3 16 -10 40 -2
40 12 0 14 40 48 56 48 7 0 15 -4 18 -9 3 -4 16 -6 29 -4 19 4 24 11 25 36 1
34 -22 57 -50 49 -29 -7 -21 -22 15 -23 17 0 26 -3 20 -6 -7 -2 -13 -11 -13
-19 0 -21 -18 -17 -45 12 -20 22 -29 24 -69 20 -25 -3 -46 -2 -46 2 0 12 40
33 51 26 5 -3 15 -1 22 4 7 6 32 18 57 28 25 10 48 22 52 28 6 9 54 12 93 5
15 -3 20 1 20 16 0 18 5 21 36 16 6 0 8 -8 5 -17 -10 -26 45 -8 70 23 13 17
27 24 37 20 9 -3 19 -2 22 3 10 16 45 11 45 -5 0 -8 7 -15 16 -15 8 0 12 4 9
10 -3 5 -2 10 4 10 5 0 11 -5 13 -10 2 -7 15 -7 37 0 19 5 38 7 43 3 16 -9
100 -5 112 7 12 12 29 13 22 1 -3 -5 3 -11 14 -14 11 -3 18 -1 14 4 -9 16 6
31 20 20 9 -8 28 -6 65 5 28 8 55 13 59 10 4 -2 25 4 47 14 30 14 42 15 48 7
7 -9 10 -9 13 0 3 7 13 9 21 6 12 -5 15 -2 10 10 -7 19 5 22 33 7 10 -5 55
-11 100 -13 56 -3 85 -9 91 -18 6 -10 9 -10 9 -1 0 14 46 17 55 3 3 -6 14 -8
25 -6 11 2 22 0 25 -5 3 -4 14 -6 24 -3 14 3 19 0 18 -14 -1 -12 6 -19 21 -21
16 -3 22 2 22 17 0 11 5 23 11 26 11 7 49 -27 49 -44 0 -16 24 -18 39 -3 13
12 16 12 26 -2 7 -9 17 -16 23 -16 17 0 45 -47 36 -61 -4 -7 -3 -9 4 -5 6 3
14 2 17 -4 5 -8 11 -8 20 0 10 8 20 8 37 0 21 -10 21 -10 6 3 -22 17 -24 47
-3 47 8 0 15 7 15 15 0 8 6 15 14 15 8 0 16 7 20 15 3 8 15 15 27 15 16 0 20
-5 16 -19 -5 -19 -4 -19 27 -2 17 10 42 16 56 15 31 -4 80 34 83 64 1 12 4 22
8 22 16 0 43 -44 44 -73 0 -18 4 -38 8 -44 10 -15 47 -17 47 -3 0 6 8 5 19 -2
14 -8 17 -16 10 -24 -11 -14 37 -54 68 -55 14 0 12 -3 -7 -10 -14 -6 -40 -8
-57 -4 -20 4 -33 2 -33 -5 0 -10 27 -15 65 -11 15 1 17 -1 7 -11 -6 -6 -12
-22 -12 -34 0 -19 -5 -21 -61 -22 -33 -1 -71 3 -85 8 -44 17 -73 -12 -39 -40
28 -23 15 -32 -15 -10 -16 12 -34 18 -40 15 -17 -10 -11 -23 13 -28 19 -3 20
-5 5 -11 -11 -5 -23 -2 -33 8 -18 18 -30 21 -20 7 10 -18 -16 -23 -34 -7 -10
9 -22 16 -28 16 -14 0 -25 -44 -16 -67 6 -17 5 -17 -13 -2 -25 21 -133 58
-159 55 -29 -3 -75 -36 -75 -52 0 -8 11 -19 25 -24 14 -5 25 -14 25 -20 0 -6
6 -18 14 -26 8 -7 12 -22 9 -33 -4 -16 -1 -19 15 -14 21 5 72 -35 72 -57 0
-15 -17 -12 -24 5 -11 30 -25 16 -15 -15 6 -16 15 -27 20 -24 6 3 17 0 25 -7
19 -15 69 7 55 25 -13 16 -12 29 5 47 15 17 47 15 71 -3 7 -6 16 -2 25 10 8
13 24 19 45 18 17 0 29 -5 26 -9 -3 -5 1 -8 8 -6 8 1 23 1 34 0 17 -1 17 -3 5
-15 -16 -16 -74 -11 -64 5 14 23 -52 -13 -74 -40 -12 -16 -16 -17 -46 -20 -15
-1 -10 -41 5 -41 5 0 9 -4 9 -10 0 -5 -8 -10 -17 -10 -15 0 -16 -2 -3 -10 9
-5 16 -6 18 0 2 5 10 6 17 3 9 -3 19 5 26 21 9 19 20 26 39 26 35 0 40 -6 30
-40 -10 -35 8 -80 32 -80 12 0 15 6 11 23 -3 16 -2 18 5 8 8 -11 11 -11 18 0
5 8 9 18 9 24 0 5 8 11 18 13 12 3 17 -3 17 -20 0 -33 10 -43 50 -46 43 -5 44
-6 31 -30 -6 -11 -8 -22 -4 -25 7 -8 33 18 33 33 0 7 7 9 16 6 9 -3 20 -6 25
-6 5 0 9 -6 9 -14 0 -9 -7 -12 -20 -9 -11 3 -20 0 -20 -6 0 -19 37 -12 51 10
18 27 42 17 60 -24 10 -24 20 -32 39 -32 15 0 24 5 23 13 -2 8 12 12 45 12 49
0 72 12 72 38 0 12 -3 12 -15 2 -9 -7 -18 -11 -20 -8 -3 3 1 11 9 18 13 10 20
8 42 -9 15 -12 37 -21 50 -21 12 0 24 -6 27 -12 3 -9 7 -6 13 6 5 13 1 32 -13
58 -12 21 -20 38 -17 38 2 0 19 -9 39 -20 46 -26 47 -26 40 14 -9 43 8 54 39
25 26 -25 24 -59 -4 -59 -21 0 -25 -46 -4 -54 16 -6 28 10 19 24 -3 5 1 10 9
10 21 0 20 -20 -1 -36 -17 -13 -17 -15 0 -25 9 -5 17 -17 17 -25 0 -8 7 -17
15 -20 8 -4 12 -10 9 -15 -3 -5 0 -9 5 -9 6 0 11 -8 11 -17 0 -17 51 -83 64
-83 9 0 7 77 -4 130 -12 64 3 83 23 31 10 -23 17 -49 17 -59 0 -9 4 -23 9 -31
7 -11 11 -9 21 10 10 17 10 24 1 27 -15 5 -4 22 15 22 17 0 19 -46 2 -54 -10
-5 -10 -7 0 -12 6 -3 12 -10 12 -16 0 -6 8 -17 18 -24 14 -11 15 -15 3 -23
-11 -7 -11 -10 1 -17 8 -5 17 -17 21 -26 3 -10 13 -18 22 -18 25 0 17 -15 -10
-18 -16 -1 -25 3 -25 13 0 9 -9 15 -21 15 -15 0 -19 5 -15 15 7 19 -1 19 -21
0 -8 -8 -18 -13 -23 -10 -4 3 -10 -4 -13 -15 -3 -14 -14 -20 -31 -20 -29 0
-31 -3 -15 -32 7 -13 7 -18 1 -14 -6 3 -18 -1 -26 -10 -14 -13 -16 -14 -16 0
0 8 -9 21 -21 29 -11 8 -16 18 -11 21 6 3 8 14 6 24 -5 18 -48 23 -72 8 -20
-12 -28 2 -14 24 16 27 16 28 -18 35 -20 4 -30 13 -30 25 0 9 -6 23 -14 30 -8
6 -12 19 -9 28 4 15 3 15 -6 2 -10 -13 -12 -13 -20 0 -5 8 -7 18 -4 23 3 5 -1
13 -8 18 -12 8 -12 11 1 19 13 9 12 11 -5 9 -11 -1 -24 0 -30 1 -30 6 -91 -3
-101 -16 -16 -21 -77 -17 -107 6 -29 23 -48 25 -65 8 -20 -20 -15 -40 8 -33
10 3 29 1 41 -6 20 -10 20 -12 6 -21 -10 -5 -22 -6 -27 -3 -6 3 -10 2 -10 -4
0 -18 -63 -42 -94 -35 -24 5 -28 3 -23 -9 4 -11 -3 -21 -23 -30 -31 -16 -50
-7 -50 25 0 10 -4 18 -10 18 -5 0 -10 7 -10 15 0 16 -27 20 -46 7 -6 -4 -14
-17 -18 -29 -4 -14 -12 -20 -21 -16 -11 4 -12 10 -4 25 11 20 11 20 -15 2 -14
-11 -26 -23 -26 -27 0 -5 -9 -6 -20 -2 -10 3 -29 1 -40 -5 -16 -9 -28 -8 -52
4 -42 21 -65 22 -48 1 11 -13 10 -14 -6 -9 -19 7 -19 7 0 -14 11 -12 25 -22
33 -22 7 0 13 -7 13 -15 0 -9 9 -15 23 -15 12 0 33 -11 45 -25 22 -23 72 -32
72 -13 0 3 9 10 20 13 11 3 20 13 20 22 0 10 6 13 17 9 9 -4 20 -1 24 5 4 7
17 9 33 5 15 -4 24 -11 21 -16 -11 -17 11 -11 39 11 20 16 35 20 59 15 43 -9
73 -10 95 -1 9 4 56 8 104 9 81 1 88 0 97 -20 12 -27 50 -41 61 -24 5 8 16 9
30 5 18 -6 20 -9 9 -16 -8 -5 -11 -9 -6 -10 4 -1 12 -3 17 -4 6 -1 17 -3 26
-4 9 0 14 -7 11 -15 -6 -16 32 -56 55 -56 8 0 32 -11 52 -25 20 -14 41 -25 46
-25 15 0 12 -8 -8 -28 -10 -10 -24 -16 -30 -14 -7 2 -12 -3 -12 -12 0 -9 -6
-16 -13 -16 -8 0 -24 -11 -37 -25 -13 -14 -28 -24 -34 -24 -13 2 -76 -21 -76
-28 0 -2 5 -13 10 -24 9 -16 14 -17 30 -7 16 10 22 8 40 -14 19 -25 22 -26 47
-13 15 8 38 12 50 9 18 -5 23 -2 24 12 0 11 3 14 6 6 3 -9 12 -7 30 8 35 27
93 27 100 -1 3 -12 11 -18 19 -15 8 3 14 0 14 -7 0 -7 16 -30 35 -51 19 -22
35 -46 35 -53 0 -8 5 -11 11 -7 11 6 79 -58 79 -75 0 -4 12 -13 27 -20 27 -12
27 -13 8 -27 -18 -14 -18 -14 6 -13 13 1 37 -3 52 -10 22 -8 27 -16 22 -30 -4
-13 4 -29 25 -51 16 -17 30 -36 30 -43 1 -16 68 -58 75 -47 3 5 14 7 25 5 16
-3 20 1 19 23 0 15 -3 21 -6 15 -8 -20 -22 -15 -35 12 -6 14 -15 25 -20 25 -5
0 -6 -6 -3 -12 4 -7 -3 -2 -14 11 -12 13 -21 32 -21 43 0 12 -4 17 -12 12 -8
-5 -9 -2 -5 10 6 15 3 17 -18 12 -22 -6 -25 -3 -25 18 0 18 -4 24 -15 20 -23
-9 -18 17 9 50 16 19 30 27 40 23 20 -8 20 7 0 37 -10 17 -12 26 -4 31 8 5 8
10 0 20 -8 9 -5 14 10 18 11 3 20 12 20 21 0 9 12 19 26 22 16 4 23 12 20 20
-9 22 13 16 40 -11 30 -31 27 -51 -9 -47 -14 1 -28 -2 -32 -8 -3 -5 1 -10 9
-10 18 0 20 -8 7 -29 -5 -8 -16 -11 -26 -7 -13 4 -16 2 -11 -9 3 -9 0 -15 -9
-15 -18 0 -19 -7 -2 -24 6 -8 19 -23 27 -35 14 -21 37 -31 25 -11 -9 15 14 40
36 40 21 0 38 -22 21 -28 -17 -5 -15 -32 3 -32 8 0 22 12 32 28 32 50 52 55
51 12 -1 -23 -4 -28 -14 -19 -16 13 -34 4 -34 -17 0 -8 -6 -14 -14 -14 -16 0
-28 -37 -15 -46 5 -3 9 -16 9 -29 0 -13 10 -31 22 -40 21 -14 24 -14 34 0 6 8
20 15 31 15 10 0 24 5 31 12 9 9 13 7 18 -6 4 -11 0 -22 -12 -31 -15 -11 -16
-14 -4 -15 12 0 13 -2 1 -9 -9 -6 -10 -11 -2 -15 6 -4 11 -12 11 -18 0 -7 -5
-6 -14 1 -11 9 -16 9 -22 0 -4 -7 -3 -14 4 -17 6 -2 8 -11 5 -20 -3 -9 -3 -14
1 -11 4 4 18 -3 31 -15 l25 -21 -23 -19 c-22 -18 -22 -18 -25 2 -2 12 -12 24
-23 27 -10 4 -19 13 -19 21 0 8 -3 13 -8 10 -4 -2 -16 2 -27 10 -16 12 -17 16
-6 23 10 7 11 10 1 16 -8 5 -18 2 -24 -7 -6 -8 -18 -17 -26 -20 -11 -4 -7 -9
13 -17 36 -14 34 -17 -10 -19 -42 -1 -104 15 -115 31 -4 6 -12 4 -23 -6 -9
-10 -22 -17 -29 -17 -8 0 -19 -6 -25 -14 -16 -19 -121 -17 -121 2 0 6 -5 12
-11 12 -5 0 -8 4 -4 9 3 6 -6 6 -25 1 -25 -7 -30 -6 -30 10 0 10 -9 20 -20 23
-19 5 -24 -3 -21 -30 1 -8 -5 -10 -14 -7 -10 4 -12 10 -6 18 5 6 12 26 16 45
6 29 5 33 -9 28 -9 -4 -16 -2 -16 4 0 5 -18 9 -40 7 -22 -1 -40 -7 -40 -12 0
-6 -7 0 -16 12 -8 12 -13 26 -9 31 3 5 1 12 -5 16 -5 3 -10 0 -10 -8 0 -15
-20 -27 -46 -27 -8 0 -14 6 -14 14 0 11 -10 13 -42 9 -55 -6 -90 -23 -84 -40
6 -16 1 -16 -26 -2 -15 8 -22 8 -28 -1 -14 -23 -69 -1 -85 33 l-14 32 6 -30 6
-30 -22 23 c-12 12 -30 22 -41 22 -10 0 -25 3 -34 6 -29 11 -17 -11 17 -30 67
-39 106 -56 121 -50 9 3 16 1 16 -6 0 -6 4 -9 9 -6 5 3 14 -1 21 -9 7 -8 25
-15 40 -15 15 0 40 -11 56 -25 16 -14 36 -23 46 -19 9 2 19 0 23 -6 3 -5 21
-10 38 -10 19 0 51 -12 77 -30 25 -16 51 -30 58 -30 6 0 12 -7 12 -15 0 -8 9
-19 20 -25 11 -6 20 -7 20 -3 0 4 7 -2 15 -13 14 -18 14 -18 15 6 1 24 1 24
15 6 9 -12 15 -15 15 -7 0 14 39 -7 68 -36 7 -7 23 -13 34 -13 23 0 98 -20
113 -30 6 -4 59 -8 119 -9 82 -2 111 1 117 11 7 10 9 10 9 1 0 -7 10 -13 21
-13 17 0 20 4 16 22 -4 13 0 26 9 32 12 9 11 13 -6 24 -18 11 -21 10 -29 -10
l-8 -22 -12 22 c-6 12 -18 22 -26 22 -26 0 -16 18 18 34 33 16 52 16 75 3 7
-5 12 -3 12 4 0 10 3 10 12 1 7 -7 22 -12 35 -12 13 0 26 -7 29 -15 4 -8 14
-15 23 -15 9 0 27 -9 41 -20 14 -11 35 -20 47 -20 12 0 33 -11 47 -25 23 -23
32 -25 116 -25 l90 0 0 41 c0 36 -2 40 -20 34 -14 -5 -20 -2 -20 10 0 9 4 14
9 11 18 -12 31 60 31 175 0 66 -3 118 -8 116 -4 -1 -7 3 -7 8 0 6 4 9 8 7 5
-1 7 5 5 15 -2 10 -12 18 -23 18 -11 0 -21 7 -21 15 -1 8 -2 19 -3 23 0 5 -8
1 -17 -7 -8 -9 -20 -13 -26 -10 -6 4 -7 9 0 13 5 3 6 15 1 26 -4 11 -8 14 -8
8 -2 -23 -17 -13 -32 20 -8 19 -21 31 -31 31 -10 -1 -14 4 -11 12 3 7 -4 25
-15 39 -12 15 -18 33 -15 41 7 19 22 18 29 -4 3 -9 11 -27 17 -40 10 -22 12
-22 24 -6 10 14 15 15 27 5 9 -7 18 -21 21 -31 4 -13 14 -17 36 -16 23 2 31
-3 34 -18 2 -12 6 -30 8 -41 3 -11 5 158 6 376 0 387 0 396 -20 418 -12 12
-27 20 -34 17 -15 -6 -27 17 -19 38 3 9 -3 17 -15 21 -15 5 -21 15 -21 37 0
29 1 30 23 16 12 -9 24 -24 26 -34 7 -40 23 -46 42 -17 16 24 19 49 19 169 0
98 -4 144 -12 153 -10 11 -10 12 -1 7 10 -6 13 282 13 1408 0 1093 -3 1416
-12 1416 -9 0 -9 3 0 12 15 15 16 108 1 108 -6 0 -9 7 -5 15 7 18 -5 20 -22 3z
m10 -90 c-9 -9 -12 -7 -12 12 0 19 3 21 12 12 9 -9 9 -15 0 -24z m-362 -368
c0 -5 -2 -10 -4 -10 -3 0 -8 5 -11 10 -3 6 -1 10 4 10 6 0 11 -4 11 -10z
m-323 -362 c-3 -7 -5 -2 -5 12 0 14 2 19 5 13 2 -7 2 -19 0 -25z m-37 6 c0 -8
-5 -12 -10 -9 -6 4 -8 11 -5 16 9 14 15 11 15 -7z m-197 -89 c-3 -9 -8 -14
-10 -11 -3 3 -2 9 2 15 9 16 15 13 8 -4z m-2448 -85 c3 -5 1 -10 -4 -10 -6 0
-11 5 -11 10 0 6 2 10 4 10 3 0 8 -4 11 -10z m2482 4 c-3 -3 -12 -4 -19 -1 -8
3 -5 6 6 6 11 1 17 -2 13 -5z m-67 -36 c0 -11 -12 -10 -30 2 -12 7 -10 9 8 7
12 0 22 -5 22 -9z m-1735 -8 c3 -5 1 -10 -4 -10 -6 0 -11 5 -11 10 0 6 2 10 4
10 3 0 8 -4 11 -10z m1665 0 c0 -5 -4 -10 -10 -10 -5 0 -10 5 -10 10 0 6 5 10
10 10 6 0 10 -4 10 -10z m-90 -66 c0 -8 -7 -14 -15 -14 -15 0 -21 21 -9 33 10
9 24 -2 24 -19z m-2141 -48 c8 -10 8 -16 -2 -25 -11 -8 -16 -5 -25 14 -9 20
-9 25 2 25 7 0 19 -6 25 -14z m-189 -6 c0 -5 -4 -10 -10 -10 -5 0 -10 5 -10
10 0 6 5 10 10 10 6 0 10 -4 10 -10z m532 -15 c13 -17 9 -20 -22 -22 -20 -1
-30 2 -30 12 0 22 38 30 52 10z m-205 -57 c-3 -8 -6 -5 -6 6 -1 11 2 17 5 13
3 -3 4 -12 1 -19z m83 7 c10 -12 10 -15 -4 -15 -9 0 -16 7 -16 15 0 8 2 15 4
15 2 0 9 -7 16 -15z m1448 -7 c-2 -6 -10 -14 -16 -16 -7 -2 -10 2 -6 12 7 18
28 22 22 4z m-4263 -22 c48 -52 29 -79 -40 -56 -41 13 -41 14 -15 42 10 12 17
25 14 30 -12 18 20 6 41 -16z m165 -30 c0 -21 -6 -25 -42 -29 -24 -2 -52 -8
-64 -12 -18 -6 -21 -2 -21 23 0 31 6 33 58 17 12 -4 21 -1 25 9 10 26 44 20
44 -8z m130 -46 c0 -5 -5 -10 -11 -10 -5 0 -7 5 -4 10 3 6 8 10 11 10 2 0 4
-4 4 -10z m4188 -26 c-10 -10 -28 6 -28 24 0 15 1 15 17 -1 9 -9 14 -19 11
-23z m-4453 16 c9 -15 -5 -52 -17 -48 -16 6 -16 58 -1 58 6 0 15 -5 18 -10z
m4125 -4 c0 -11 -19 -15 -25 -6 -3 5 1 10 9 10 9 0 16 -2 16 -4z m-1020 -16
c0 -5 -4 -10 -10 -10 -5 0 -10 5 -10 10 0 6 5 10 10 10 6 0 10 -4 10 -10z m60
-16 c0 -8 -5 -12 -10 -9 -6 4 -8 11 -5 16 9 14 15 11 15 -7z m-3087 -14 c5
-20 -7 -28 -18 -10 -3 5 -12 7 -20 3 -8 -3 -15 0 -15 5 0 9 14 16 41 21 4 0 9
-8 12 -19z m-113 -24 c0 -21 -21 -31 -31 -15 -14 22 -11 29 11 29 11 0 20 -6
20 -14z m2635 -76 c3 -5 1 -10 -4 -10 -6 0 -11 5 -11 10 0 6 2 10 4 10 3 0 8
-4 11 -10z m-2416 -13 c8 -10 7 -17 -2 -26 -9 -10 -7 -16 12 -32 13 -11 21
-22 17 -26 -3 -4 -18 4 -32 18 -18 17 -23 19 -18 6 4 -13 1 -17 -14 -17 -11 0
-23 7 -26 16 -3 8 -10 12 -16 9 -14 -9 -12 7 4 28 7 9 21 17 30 17 9 0 16 5
16 10 0 14 16 12 29 -3z m-129 -37 c0 -5 -4 -10 -10 -10 -5 0 -10 5 -10 10 0
6 5 10 10 10 6 0 10 -4 10 -10z m5760 -85 c0 -9 -10 -19 -22 -24 -27 -10 -39
-4 -18 9 8 6 11 10 5 10 -11 0 16 20 28 20 4 0 7 -7 7 -15z m-5330 -130 c0 -3
-9 -5 -20 -5 -11 0 -20 7 -20 15 0 13 4 14 20 5 11 -6 20 -13 20 -15z m1530
-5 c0 -4 -11 -5 -25 -2 -14 2 -23 8 -20 12 6 10 45 1 45 -10z m-225 -80 c3 -5
1 -10 -4 -10 -6 0 -11 5 -11 10 0 6 2 10 4 10 3 0 8 -4 11 -10z m-1390 -50 c3
-5 1 -10 -4 -10 -6 0 -11 5 -11 10 0 6 2 10 4 10 3 0 8 -4 11 -10z m1265 2 c0
-4 -11 -9 -25 -10 -14 -1 -25 3 -25 8 0 6 11 10 25 10 14 0 25 -4 25 -8z
m1832 -14 c-9 -9 -15 -9 -24 0 -9 9 -7 12 12 12 19 0 21 -3 12 -12z m-1292
-39 c14 -26 11 -29 -17 -18 -25 9 -31 39 -8 39 8 0 19 -9 25 -21z m1260 2 c0
-5 -19 -21 -41 -36 -23 -15 -38 -22 -35 -16 4 6 2 11 -3 11 -6 0 -11 7 -11 15
0 9 6 15 13 14 20 -2 57 12 57 23 0 5 5 6 10 3 6 -3 10 -10 10 -14z m-156 -12
c-8 -13 -21 -11 -27 5 -4 10 0 12 14 9 10 -3 16 -9 13 -14z m-1724 -18 c-7
-14 -7 -21 0 -21 6 0 15 11 20 25 10 27 28 33 36 11 3 -8 13 -12 22 -9 9 2 26
-3 37 -12 19 -16 19 -16 -11 -11 -28 4 -31 3 -26 -16 5 -19 2 -20 -39 -13 -24
4 -52 11 -61 16 -15 8 -15 11 5 33 25 28 34 27 17 -3z m1476 9 c0 -11 -6 -20
-13 -20 -11 0 -11 5 -3 20 6 11 12 20 13 20 2 0 3 -9 3 -20z m198 -6 c9 -36
-1 -43 -14 -10 -12 33 -12 36 -1 36 5 0 12 -12 15 -26z m-2772 -10 c-7 -12
-11 -13 -17 -4 -4 7 -2 16 6 21 18 11 23 4 11 -17z m54 -21 c-1 -1 -12 0 -24
4 -18 4 -20 8 -11 19 10 12 14 11 24 -3 8 -10 12 -19 11 -20z m2954 -36 c0
-20 -25 1 -28 24 -2 23 -2 23 13 5 8 -11 15 -24 15 -29z m-2826 -3 c4 -12 2
-12 -14 -4 -16 9 -20 8 -20 -5 0 -17 -27 -20 -50 -5 -12 8 -11 10 8 10 12 0
25 6 28 14 6 17 40 10 48 -10z m4040 10 c3 -8 2 -12 -4 -9 -6 3 -10 10 -10 16
0 14 7 11 14 -7z m-4226 -24 c14 0 14 -2 3 -9 -16 -10 -42 8 -33 24 3 5 7 4
10 -3 2 -7 11 -12 20 -12z m336 12 c2 -4 -5 -9 -17 -9 -17 -2 -19 0 -7 7 18
12 18 12 24 2z m851 -2 c3 -5 1 -10 -4 -10 -6 0 -11 5 -11 10 0 6 2 10 4 10 3
0 8 -4 11 -10z m2972 4 c13 -4 21 -10 18 -14 -3 -4 2 -10 10 -14 8 -3 15 -15
15 -26 0 -22 10 -26 26 -10 8 8 11 0 12 -25 2 -49 -13 -44 -39 13 -12 26 -24
41 -27 34 -3 -10 -7 -10 -18 -1 -12 10 -12 14 -2 20 9 6 5 11 -12 18 -28 11
-17 14 17 5z m-1712 -33 c-7 -7 -21 -11 -30 -7 -23 8 -12 21 19 21 22 0 23 -2
11 -14z m560 9 c3 -6 -1 -7 -9 -4 -18 7 -21 14 -7 14 6 0 13 -4 16 -10z
m-3050 -21 c5 -16 12 -19 31 -15 18 5 24 2 24 -9 0 -11 -7 -14 -27 -11 -25 5
-57 26 -39 26 5 0 3 7 -4 15 -8 9 -8 15 -2 15 6 0 14 -9 17 -21z m4391 1 c0
-11 -4 -20 -8 -20 -4 0 -8 9 -8 20 0 11 4 20 8 20 4 0 8 -9 8 -20z m-4191 0
c3 -5 1 -10 -4 -10 -6 0 -11 5 -11 10 0 6 2 10 4 10 3 0 8 -4 11 -10z m155 -5
c0 -8 -7 -15 -15 -15 -26 0 -18 20 13 29 1 1 2 -6 2 -14z m-179 -18 c8 -13 7
-22 -1 -32 -13 -16 -34 -10 -25 6 4 5 2 9 -4 9 -5 0 -15 -8 -20 -17 -9 -15
-10 -14 -11 9 0 20 -4 26 -15 22 -9 -4 -15 0 -15 8 0 22 79 18 91 -5z m4147 1
c-6 -18 -28 -21 -28 -4 0 9 7 16 16 16 9 0 14 -5 12 -12z m-4241 -44 c-9 -10
-27 15 -21 31 7 17 8 16 16 -5 5 -13 7 -24 5 -26z m2383 32 c0 -8 -14 -22 -32
-30 l-31 -16 19 22 c18 21 36 37 42 38 1 0 2 -6 2 -14z m-2000 0 c0 -3 -4 -8
-10 -11 -5 -3 -10 -1 -10 4 0 6 5 11 10 11 6 0 10 -2 10 -4z m314 -12 c3 -8 2
-12 -4 -9 -6 3 -10 10 -10 16 0 14 7 11 14 -7z m-389 -14 c3 -5 -3 -10 -14
-10 -12 0 -21 5 -21 10 0 6 6 10 14 10 8 0 18 -4 21 -10z m3836 0 c5 0 9 -4 9
-10 0 -14 -13 -12 -36 6 -17 14 -17 15 -1 10 10 -3 23 -6 28 -6z m-4027 -21
c-31 -12 -40 -9 -20 6 10 8 24 11 29 8 6 -4 2 -10 -9 -14z m4029 -13 c14 -11
15 -15 4 -19 -7 -3 -19 4 -25 14 -14 22 -5 24 21 5z m813 -54 c15 -24 15 -25
-1 -19 -9 4 -28 10 -41 13 -27 7 -26 6 -18 27 8 21 40 10 60 -21z m81 16 c-3
-8 -6 -5 -6 6 -1 11 2 17 5 13 3 -3 4 -12 1 -19z m54 -46 c-7 -2 -18 1 -23 6
-8 8 -4 9 13 5 13 -4 18 -8 10 -11z m-154 2 c-3 -3 -12 -4 -19 -1 -8 3 -5 6 6
6 11 1 17 -2 13 -5z m-673 -29 c-7 -18 -30 -20 -40 -3 -5 8 -2 9 9 5 10 -3 17
-2 17 3 0 6 4 10 10 10 5 0 7 -7 4 -15z m41 -26 c-7 -10 -35 -1 -35 11 0 5 9
6 20 3 11 -3 17 -9 15 -14z m-35 -29 c0 -5 -7 -10 -16 -10 -8 0 -12 5 -9 10 3
6 10 10 16 10 5 0 9 -4 9 -10z m-131 -194 c-3 -3 -11 5 -18 17 -13 21 -12 21
5 5 10 -10 16 -20 13 -22z m-3559 5 c0 -5 -6 -14 -14 -20 -10 -9 -16 -8 -25 3
-10 11 -8 15 6 19 29 8 33 7 33 -2z m-140 -16 c32 -17 40 -35 14 -35 -24 0
-54 19 -54 35 0 19 4 19 40 0z m-107 -15 c-3 -11 -9 -20 -14 -20 -5 0 -9 -9
-9 -20 0 -11 -4 -20 -10 -20 -5 0 -10 14 -10 30 0 22 6 33 23 40 12 5 23 9 24
9 0 1 -1 -8 -4 -19z m3665 -40 c16 0 15 -9 -3 -44 -10 -19 -12 -33 -5 -40 10
-13 -18 -85 -33 -86 -21 -1 -19 35 4 53 23 18 23 19 4 33 -10 8 -22 14 -27 14
-4 0 -8 7 -8 15 0 8 -3 14 -7 14 -20 -3 -34 2 -28 11 3 6 20 10 37 10 26 0 28
2 18 15 -18 22 -2 40 19 21 10 -9 23 -16 29 -16z m608 -17 c-10 -10 -19 5 -10
18 6 11 8 11 12 0 2 -7 1 -15 -2 -18z m-245 -31 c12 -17 17 -32 12 -32 -4 0
-18 16 -31 36 -13 20 -19 35 -12 32 6 -2 20 -18 31 -36z m139 28 c0 -5 -2 -10
-4 -10 -3 0 -8 5 -11 10 -3 6 -1 10 4 10 6 0 11 -4 11 -10z m-262 -12 c16 -16
15 -29 -2 -22 -16 6 -30 34 -18 34 5 0 13 -5 20 -12z m192 -19 c0 -14 -17 -10
-23 5 -4 10 -1 13 9 9 7 -3 14 -9 14 -14z m115 1 c3 -5 1 -10 -4 -10 -6 0 -11
5 -11 10 0 6 2 10 4 10 3 0 8 -4 11 -10z m-1641 -25 c-4 -8 -10 -12 -15 -9
-14 8 -10 24 6 24 9 0 12 -6 9 -15z m1001 -15 c-4 -13 -2 -20 6 -20 10 0 10
-3 1 -12 -8 -8 -15 -8 -26 1 -10 9 -16 9 -21 1 -7 -12 0 -24 16 -26 5 -1 13
-2 18 -3 5 0 8 -12 5 -25 -4 -26 21 -60 37 -51 5 4 9 15 9 26 0 30 24 17 28
-14 2 -15 9 -27 17 -27 7 0 15 -7 19 -15 7 -19 30 -19 46 0 10 12 16 13 27 3
11 -9 16 -9 24 3 7 12 9 12 10 -1 2 -22 -2 -64 -7 -69 -2 -3 -15 6 -29 19 -14
13 -25 18 -25 12 0 -6 5 -14 10 -17 6 -4 9 -12 8 -18 -3 -14 23 -57 34 -57 5
0 8 6 8 14 0 8 7 17 15 20 13 4 14 10 5 26 -7 13 -7 20 -1 20 6 0 18 -17 27
-37 23 -49 23 -50 35 -33 8 12 9 11 8 -5 -4 -28 11 -66 22 -60 5 4 14 -7 20
-22 6 -15 15 -36 21 -46 14 -28 1 -33 -25 -10 -12 11 -39 26 -59 33 -21 6 -38
16 -38 20 0 5 -7 7 -15 4 -8 -4 -15 -2 -15 2 0 5 -26 10 -57 11 -31 2 -64 5
-73 8 -23 7 -38 39 -33 68 l5 27 19 -21 c11 -12 22 -19 27 -14 4 4 1 10 -5 12
-7 3 -13 10 -13 17 0 6 -15 17 -32 24 -29 11 -35 10 -45 -5 -7 -9 -13 -23 -13
-31 0 -12 -3 -12 -15 -2 -9 7 -13 20 -10 29 4 13 2 12 -9 -1 -16 -21 -52 -24
-59 -4 -3 7 -17 14 -31 14 -22 0 -56 21 -56 36 0 16 -37 46 -57 46 -13 0 -23
6 -23 13 0 9 -12 13 -33 12 -30 0 -33 2 -29 22 3 14 12 23 23 23 11 0 19 4 19
9 0 4 23 4 51 -2 58 -11 69 -4 69 51 0 33 14 43 24 17 3 -8 13 -15 21 -15 17
0 45 -23 45 -36 0 -5 -5 -3 -12 4 -16 16 -33 15 -19 -1 6 -8 7 -17 1 -23 -6
-6 -5 -15 1 -24 8 -11 12 -12 16 -2 2 6 8 10 12 7 5 -2 16 2 27 9 15 12 16 16
5 30 -11 13 -9 20 9 46 24 34 45 40 35 10z m532 -23 c-8 -15 -17 -24 -20 -20
-4 3 -3 11 1 17 7 11 9 17 11 38 1 8 4 9 11 2 7 -7 6 -19 -3 -37z m163 28 c0
-8 -4 -15 -10 -15 -5 0 -7 7 -4 15 4 8 8 15 10 15 2 0 4 -7 4 -15z m-3510 -10
c0 -8 9 -15 20 -15 19 0 24 -14 23 -57 -1 -7 5 -13 12 -13 19 0 27 -30 10 -36
-8 -3 -20 -4 -27 -1 -7 2 -22 -3 -32 -12 -11 -9 -17 -11 -13 -5 9 15 -51 64
-69 57 -8 -3 -14 -10 -14 -15 0 -6 -7 -4 -16 3 -14 11 -19 9 -34 -11 -10 -13
-16 -33 -14 -43 3 -19 2 -19 -16 -2 -10 9 -23 14 -29 10 -6 -3 -19 -1 -28 4
-15 8 -23 4 -45 -22 -25 -30 -27 -31 -53 -17 -15 8 -30 21 -33 30 -3 8 -10 18
-16 22 -7 5 -7 8 2 8 6 0 12 7 12 15 0 20 48 20 86 0 33 -17 46 -11 19 9 -17
12 -17 13 4 19 12 3 19 1 15 -4 -3 -6 5 -7 23 -2 15 4 42 7 58 6 33 -1 47 13
39 39 -2 9 0 19 6 23 5 3 10 1 10 -4 0 -6 14 -11 30 -11 23 0 30 4 30 20 0 13
7 20 20 20 11 0 20 -7 20 -15z m3314 0 c-4 -8 -8 -15 -10 -15 -2 0 -4 7 -4 15
0 8 4 15 10 15 5 0 7 -7 4 -15z m165 -45 c13 -8 33 -51 27 -57 -7 -7 -30 17
-39 40 -3 9 -13 17 -22 17 -8 0 -15 5 -15 10 0 6 5 10 11 10 8 0 9 4 0 13 -6
8 -8 17 -4 20 3 4 12 -6 20 -20 8 -15 18 -30 22 -33z m-3374 40 c3 -5 1 -10
-4 -10 -6 0 -11 5 -11 10 0 6 2 10 4 10 3 0 8 -4 11 -10z m2311 -17 c-8 -8
-36 5 -36 17 0 7 6 7 21 0 11 -7 18 -14 15 -17z m1731 -25 c34 -65 42 -96 25
-103 -25 -9 -41 16 -46 78 -3 31 -4 57 -1 57 2 0 12 -15 22 -32z m-4056 -5 c1
-17 2 -17 6 0 2 9 9 17 14 17 12 0 12 -27 -1 -35 -12 -7 -53 19 -43 28 12 12
23 7 24 -10z m2334 7 c4 -6 10 -8 15 -5 10 6 40 -5 40 -15 0 -4 -7 -11 -16
-14 -15 -6 -63 22 -64 37 0 11 18 9 25 -3z m952 -14 c-8 -21 36 -48 53 -33 10
10 11 6 6 -15 -7 -31 7 -37 24 -10 8 11 13 13 16 5 3 -7 12 -9 19 -7 11 5 12
0 5 -25 -5 -18 -5 -33 1 -36 9 -6 -10 -45 -22 -45 -4 0 -9 10 -13 23 -3 12
-19 36 -36 52 -31 29 -31 29 -37 7 -4 -18 -8 -20 -19 -11 -8 7 -12 19 -9 29 3
9 -3 25 -13 36 -13 13 -15 22 -8 31 15 17 39 16 33 -1z m343 -1 c0 -18 17 -20
23 -2 3 9 10 9 33 -3 56 -28 83 -52 76 -68 -4 -11 -1 -14 11 -9 8 3 21 -1 27
-9 7 -8 21 -14 31 -14 10 0 20 -4 23 -8 3 -5 20 -9 38 -10 18 0 34 -6 36 -11
2 -6 10 -11 17 -11 7 0 16 -6 19 -12 5 -10 7 -10 12 0 8 18 51 15 58 -4 5 -13
1 -15 -19 -10 -18 5 -24 3 -23 -6 3 -12 -2 -14 -44 -17 -20 -1 -26 -41 -7 -41
8 0 10 -12 6 -36 -7 -42 0 -64 19 -64 14 0 54 -34 54 -46 0 -6 -46 -1 -80 9
-8 2 -12 2 -7 0 12 -8 -3 -23 -24 -23 -26 0 -116 -77 -103 -89 3 -3 9 1 13 8
6 9 11 10 15 2 4 -6 13 -11 19 -11 7 0 6 4 -3 10 -8 5 -11 13 -6 17 5 4 11 3
13 -3 2 -6 10 -19 17 -29 13 -18 15 -17 39 8 15 14 29 21 32 16 8 -12 -4 -31
-15 -24 -5 3 -14 -3 -19 -14 -13 -23 -14 -31 -3 -30 19 3 22 -3 11 -22 -6 -12
-7 -19 -1 -15 5 3 12 -4 15 -15 5 -19 2 -21 -24 -15 -18 3 -29 1 -29 -6 0 -6
-2 -9 -5 -7 -2 3 0 20 5 39 11 37 -3 80 -15 48 -4 -10 -5 -25 -1 -33 6 -17 4
-18 -17 -9 -9 3 -12 14 -9 31 4 23 2 25 -14 19 -40 -15 -74 -18 -88 -7 -18 15
-33 -4 -17 -23 8 -9 7 -18 -4 -32 -14 -19 -14 -19 -28 1 -8 10 -13 26 -10 35
3 10 1 10 -7 -2 -6 -10 -20 -18 -31 -18 -12 0 -19 -5 -16 -12 2 -7 16 -12 31
-11 14 1 26 -2 26 -7 0 -16 -18 -20 -46 -10 -41 16 -69 5 -93 -36 -20 -34 -30
-64 -11 -34 5 8 13 11 17 6 4 -4 1 -13 -8 -19 -8 -7 -18 -21 -22 -31 -11 -28
-21 -11 -22 37 -4 97 -6 112 -13 100 -6 -9 -11 -6 -20 8 -12 19 -11 20 9 14
15 -5 19 -4 14 5 -5 9 -2 10 14 5 15 -4 27 1 46 21 31 33 28 37 -14 23 -24 -8
-35 -8 -46 1 -21 18 -19 30 6 30 16 0 19 4 15 17 -6 15 -5 15 13 -1 11 -10 27
-16 36 -12 9 3 13 2 10 -4 -3 -6 1 -10 10 -10 8 0 18 8 21 18 3 9 11 29 19 45
14 26 13 27 -15 27 -17 0 -30 -4 -30 -10 0 -15 -27 -12 -44 6 -9 8 -20 13 -26
9 -5 -3 -21 2 -35 11 -14 9 -43 18 -65 20 -21 1 -48 7 -59 14 -12 6 -26 8 -31
5 -17 -11 -23 24 -7 39 13 14 16 14 27 1 7 -8 22 -15 34 -15 18 0 19 -2 6 -11
-12 -9 -12 -10 3 -5 10 3 23 6 28 6 5 0 9 9 9 19 0 16 5 19 27 15 15 -3 30 -7
35 -10 5 -3 17 5 28 18 23 27 25 39 6 32 -7 -3 -16 2 -19 10 -4 10 -1 13 9 9
7 -3 14 -1 14 5 0 6 10 8 23 4 20 -5 19 -2 -10 32 -38 42 -42 60 -13 51 24 -7
25 0 6 37 -14 27 -14 27 22 30 29 2 38 8 43 28 4 14 7 19 8 13 1 -7 10 -13 22
-13 15 0 19 4 15 15 -3 8 -9 22 -12 30 -3 8 -1 15 5 15 6 0 11 -7 11 -15z
m-4157 -36 c26 -12 38 -39 17 -39 -5 0 -10 4 -10 9 0 5 -15 13 -32 16 -18 4
-41 13 -51 20 -18 13 -18 13 0 17 10 2 25 1 33 -3 8 -4 27 -12 43 -20z m617
-3 c0 -3 -4 -8 -10 -11 -5 -3 -10 -1 -10 4 0 6 5 11 10 11 6 0 10 -2 10 -4z
m2904 -31 c-4 -8 -10 -12 -15 -9 -11 6 -2 24 11 24 5 0 7 -7 4 -15z m-4424
-21 c0 -2 -9 0 -20 6 -11 6 -20 13 -20 16 0 2 9 0 20 -6 11 -6 20 -13 20 -16z
m890 11 c0 -9 -6 -12 -15 -9 -8 4 -15 10 -15 15 0 5 7 9 15 9 8 0 15 -7 15
-15z m-970 -5 c0 -5 -4 -10 -9 -10 -6 0 -13 5 -16 10 -3 6 1 10 9 10 9 0 16
-4 16 -10z m995 -20 c-4 -12 -1 -27 5 -35 9 -11 9 -15 1 -15 -6 0 -11 5 -11
10 0 6 -7 10 -15 10 -8 0 -15 5 -15 10 0 6 5 10 10 10 6 0 10 7 10 15 0 8 5
15 11 15 6 0 8 -9 4 -20z m-198 -46 c-9 -9 -37 15 -37 33 0 10 6 8 22 -7 12
-11 19 -23 15 -26z m888 26 c3 -5 1 -10 -4 -10 -6 0 -11 5 -11 10 0 6 2 10 4
10 3 0 8 -4 11 -10z m2351 -15 c3 -17 -12 -20 -21 -5 -7 12 4 34 13 25 3 -3 7
-12 8 -20z m1566 16 c-10 -6 -8 -10 8 -14 12 -3 19 -10 16 -16 -4 -6 -2 -19 3
-29 10 -18 8 -18 -30 1 -28 13 -37 22 -28 28 10 6 10 11 0 23 -12 14 -10 16
15 16 20 0 25 -3 16 -9z m-4066 -39 c-18 -16 -18 -16 -6 6 6 13 14 21 18 18 3
-4 -2 -14 -12 -24z m3304 18 c-19 -13 -30 -13 -30 0 0 6 10 10 23 10 18 0 19
-2 7 -10z m-3600 -30 c0 -5 -4 -10 -10 -10 -5 0 -10 5 -10 10 0 6 5 10 10 10
6 0 10 -4 10 -10z m2744 -70 c5 -5 -2 -12 -18 -16 -25 -6 -25 -7 -9 -20 10 -7
26 -14 36 -14 17 0 24 -15 10 -23 -5 -2 -21 -7 -37 -11 -24 -6 -28 -4 -22 10
4 11 2 15 -6 12 -7 -3 -23 5 -35 18 -19 19 -20 24 -8 34 8 6 20 8 26 4 9 -5
10 -2 6 10 -6 16 -3 17 20 11 16 -3 32 -10 37 -15z m1651 -10 c3 -5 1 -10 -4
-10 -6 0 -11 5 -11 10 0 6 2 10 4 10 3 0 8 -4 11 -10z m-1345 -50 c0 -5 -7
-10 -15 -10 -8 0 -15 5 -15 10 0 6 7 10 15 10 8 0 15 -4 15 -10z m16 -38 c-11
-10 -15 4 -8 28 l7 25 3 -23 c2 -13 1 -26 -2 -30z m-208 14 c-1 -2 -22 -6 -46
-9 -47 -6 -56 12 -11 24 21 5 67 -7 57 -15z m-3360 -38 c-3 -7 -13 -15 -24
-17 -16 -3 -17 -1 -5 13 16 19 34 21 29 4z m30 -38 c-2 -49 -68 -73 -68 -25 0
20 5 25 24 25 13 0 26 7 30 15 9 24 15 17 14 -15z m3958 14 c-3 -9 -6 -20 -6
-25 0 -5 -6 -4 -13 3 -10 9 -11 16 -3 25 16 18 29 16 22 -3z m44 6 c0 -5 10
-14 21 -21 13 -7 19 -7 15 -1 -3 6 -2 14 4 17 6 4 10 3 9 -2 -1 -4 -1 -15 0
-23 1 -12 4 -12 12 2 8 15 13 16 29 5 16 -9 24 -9 40 1 18 11 21 9 30 -13 5
-14 14 -25 20 -25 17 0 11 -20 -7 -27 -41 -16 -69 -82 -43 -98 17 -11 -9 -35
-37 -35 -31 0 -65 18 -58 30 3 5 1 19 -6 31 -8 16 -8 20 0 14 7 -4 19 -4 28
-1 12 5 13 9 3 22 -7 8 -19 13 -26 10 -19 -7 -49 44 -50 87 0 20 3 37 8 37 4
0 8 -4 8 -10z m110 6 c0 -3 -4 -8 -10 -11 -5 -3 -10 -1 -10 4 0 6 5 11 10 11
6 0 10 -2 10 -4z m-5083 -56 c-1 -21 -7 -30 -19 -30 -22 0 -23 8 -1 32 13 15
14 18 2 18 -8 0 -20 -5 -27 -12 -7 -7 -12 -8 -12 -2 0 12 41 34 52 27 4 -2 6
-17 5 -33z m3920 14 c-3 -3 -12 -4 -19 -1 -8 3 -5 6 6 6 11 1 17 -2 13 -5z
m-3517 -34 c0 -5 -4 -10 -10 -10 -5 0 -10 5 -10 10 0 6 5 10 10 10 6 0 10 -4
10 -10z m-461 -26 c-12 -15 -11 -16 11 -10 l25 7 -25 -15 c-14 -9 -28 -15 -31
-16 -10 0 -6 35 5 42 20 14 29 8 15 -8z m2156 -44 c0 -9 -11 -16 -27 -18 -30
-4 -36 6 -16 26 16 16 43 11 43 -8z m2375 5 c0 -9 -6 -12 -15 -9 -8 4 -15 10
-15 15 0 5 7 9 15 9 8 0 15 -7 15 -15z m-2250 1 c0 -3 -4 -8 -10 -11 -5 -3
-10 -1 -10 4 0 6 5 11 10 11 6 0 10 -2 10 -4z m1863 -10 c9 -7 17 -16 17 -20
0 -13 -28 -5 -45 14 -21 24 -1 28 28 6z m1585 -31 c-3 -3 -9 2 -12 12 -6 14
-5 15 5 6 7 -7 10 -15 7 -18z m-924 -17 c21 -41 20 -45 -4 -23 -11 10 -20 26
-20 37 0 26 6 22 24 -14z m-367 7 c0 -8 -4 -15 -9 -15 -10 0 -11 14 -1 23 9
10 10 9 10 -8z m517 -11 c11 -29 6 -34 -14 -14 -24 24 -25 30 -6 30 8 0 17 -7
20 -16z m793 -26 c-3 -7 -5 -2 -5 12 0 14 2 19 5 13 2 -7 2 -19 0 -25z m-1086
6 c17 -8 29 -18 26 -20 -8 -8 -56 7 -68 22 -16 19 3 19 42 -2z m-3708 -5 c31
-16 31 -16 14 -33 -21 -21 -32 -87 -16 -97 10 -6 10 -11 -1 -23 -7 -9 -10 -19
-7 -23 4 -3 12 6 18 21 17 37 33 33 25 -6 -10 -49 -9 -82 3 -86 12 -4 15 -41
3 -58 -10 -15 -52 -37 -52 -27 0 5 7 18 15 30 14 20 14 22 -5 28 -19 6 -42 47
-61 109 -6 22 -5 34 5 45 8 9 15 36 17 61 3 47 8 70 16 70 2 0 14 -5 26 -11z
m3292 -9 c3 -5 -3 -10 -14 -10 -12 0 -21 5 -21 10 0 6 6 10 14 10 8 0 18 -4
21 -10z m185 0 c0 -5 -4 -10 -10 -10 -5 0 -10 5 -10 10 0 6 5 10 10 10 6 0 10
-4 10 -10z m540 -25 c7 -8 10 -21 7 -29 -6 -15 16 -40 26 -30 3 3 15 -3 26
-13 12 -11 31 -19 44 -18 13 1 27 -6 34 -19 18 -30 16 -46 -6 -46 -10 0 -22
-7 -25 -16 -3 -8 -10 -13 -15 -9 -5 3 -12 1 -16 -5 -3 -5 -17 -10 -31 -10 -18
0 -24 5 -24 21 0 12 -5 19 -12 16 -7 -2 -12 -10 -10 -16 1 -6 -5 -11 -13 -11
-8 0 -15 3 -15 8 0 9 31 37 45 39 31 5 11 73 -22 73 -7 0 -18 10 -24 22 -9 17
-8 24 5 34 13 9 14 13 4 17 -8 3 -8 6 -2 6 6 1 17 -6 24 -14z m670 5 c0 -5 -2
-10 -4 -10 -3 0 -8 5 -11 10 -3 6 -1 10 4 10 6 0 11 -4 11 -10z m137 -6 c-3
-3 -12 -4 -19 -1 -8 3 -5 6 6 6 11 1 17 -2 13 -5z m-5078 -18 c9 -10 9 -16 1
-21 -17 -11 -40 3 -34 20 8 19 18 19 33 1z m-69 -22 c0 -8 -4 -12 -10 -9 -5 3
-10 10 -10 16 0 5 5 9 10 9 6 0 10 -7 10 -16z m1770 6 c0 -5 -5 -10 -11 -10
-5 0 -7 5 -4 10 3 6 8 10 11 10 2 0 4 -4 4 -10z m-1630 -30 c0 -6 -5 -10 -10
-10 -6 0 -8 -11 -4 -25 6 -26 -19 -64 -31 -45 -4 6 -11 7 -17 4 -7 -5 -9 0 -6
14 4 15 0 22 -15 26 -12 3 -25 0 -29 -7 -5 -7 -8 -3 -8 13 0 22 4 25 33 24 36
0 60 13 51 28 -4 6 3 5 15 -1 11 -7 21 -16 21 -21z m1665 10 c3 -5 1 -10 -4
-10 -6 0 -11 5 -11 10 0 6 2 10 4 10 3 0 8 -4 11 -10z m-1573 -25 c0 -5 -5
-11 -10 -13 -5 -1 -9 4 -9 13 0 9 4 14 9 13 5 -2 10 -8 10 -13z m1598 5 c0 -5
-5 -10 -11 -10 -5 0 -7 5 -4 10 3 6 8 10 11 10 2 0 4 -4 4 -10z m-1660 -40 c0
-5 -2 -10 -4 -10 -3 0 -8 5 -11 10 -3 6 -1 10 4 10 6 0 11 -4 11 -10z m4128
-2 c9 -9 12 -9 12 0 0 7 5 12 10 12 6 0 10 -7 10 -15 0 -8 -8 -15 -19 -15 -10
0 -24 7 -31 15 -15 18 1 20 18 3z m867 -8 c3 -5 2 -10 -4 -10 -5 0 -13 5 -16
10 -3 6 -2 10 4 10 5 0 13 -4 16 -10z m-245 -20 c22 -11 40 -23 40 -26 0 -2
-9 0 -19 6 -11 5 -36 10 -55 10 -27 0 -34 3 -30 15 8 20 17 19 64 -5z m-153
-16 c7 -7 10 -20 7 -29 -6 -13 -9 -14 -16 -3 -7 9 -8 7 -5 -9 6 -27 -1 -29
-18 -6 -9 12 -25 17 -56 16 -38 -2 -41 0 -24 10 11 6 25 12 30 12 6 1 9 6 8
12 -3 16 58 13 74 -3z m303 1 c0 -8 -9 -15 -20 -15 -12 0 -20 -7 -20 -17 0
-15 -2 -16 -10 -3 -16 25 -11 31 48 49 1 1 2 -6 2 -14z m74 -62 c-25 -18 -26
-12 -6 31 l17 39 3 -29 c3 -18 -2 -33 -14 -41z m-30 42 c3 -8 1 -15 -4 -15 -6
0 -10 7 -10 15 0 8 2 15 4 15 2 0 6 -7 10 -15z m-3384 -26 c0 -19 -29 -34 -42
-21 -14 14 1 38 22 38 12 0 20 -7 20 -17z m-1484 -46 c-11 -11 -19 6 -11 24 8
17 8 17 12 0 3 -10 2 -21 -1 -24z m1411 5 c-3 -7 -5 -2 -5 12 0 14 2 19 5 13
2 -7 2 -19 0 -25z m278 22 c3 -5 -1 -10 -9 -10 -9 0 -16 5 -16 10 0 6 4 10 9
10 6 0 13 -4 16 -10z m1275 6 c0 -3 -4 -8 -10 -11 -5 -3 -10 -1 -10 4 0 6 5
11 10 11 6 0 10 -2 10 -4z m1330 -35 c21 -39 9 -52 -25 -27 -11 8 -16 19 -12
30 9 22 24 20 37 -3z m-2915 -21 c-3 -5 -10 -10 -16 -10 -5 0 -9 5 -9 10 0 6
7 10 16 10 8 0 12 -4 9 -10z m3001 -15 c5 -12 10 -13 20 -4 11 9 14 8 14 -2
-1 -35 -37 -50 -57 -23 -7 10 -13 24 -13 31 0 18 29 16 36 -2z m-5129 -55 c3
-11 12 -20 20 -20 12 0 13 -3 3 -15 -6 -8 -9 -19 -5 -25 3 -5 -1 -10 -10 -10
-9 0 -14 4 -11 9 4 5 -4 6 -16 3 -19 -5 -20 -7 -5 -10 23 -5 22 -22 -2 -22
-23 0 -34 23 -19 38 8 8 7 16 -2 28 -23 27 -19 39 12 41 23 2 31 -3 35 -17z
m4970 0 c-4 -16 -1 -20 11 -16 9 3 23 2 31 -3 12 -8 12 -12 -2 -25 -20 -20
-27 -20 -27 -1 0 8 -6 15 -13 15 -19 0 -36 20 -30 36 9 23 36 17 30 -6z m-366
-23 c-10 -9 -11 -8 -5 6 3 10 9 15 12 12 3 -3 0 -11 -7 -18z m239 -23 c0 -8
-6 -14 -13 -14 -7 0 -13 8 -13 19 0 11 5 17 13 14 7 -3 13 -11 13 -19z m-300
6 c0 -5 -5 -10 -11 -10 -5 0 -7 5 -4 10 3 6 8 10 11 10 2 0 4 -4 4 -10z
m-2605 -20 c3 -5 1 -10 -4 -10 -6 0 -11 5 -11 10 0 6 2 10 4 10 3 0 8 -4 11
-10z m3448 -36 c-4 -12 -27 -13 -39 -2 -3 4 0 16 6 28 11 21 12 21 25 4 7 -10
11 -24 8 -30z m-175 -15 c-21 -14 -35 -10 -15 5 9 7 18 19 18 27 1 8 3 6 6 -5
3 -10 -1 -22 -9 -27z m-3618 1 c-1 -14 -28 -37 -51 -43 -19 -5 -31 -1 -43 12
-17 18 -16 19 18 14 28 -4 36 -1 36 11 0 9 8 14 20 13 11 -1 20 -4 20 -7z
m3640 -30 c0 -5 -5 -10 -11 -10 -5 0 -7 5 -4 10 3 6 8 10 11 10 2 0 4 -4 4
-10z m120 -9 c0 -5 -9 -11 -20 -14 -22 -6 -28 8 -7 16 19 8 27 8 27 -2z
m-4020 -26 c0 -9 -9 -15 -22 -15 -22 1 -23 1 -4 15 25 19 26 19 26 0z m3595
-12 c-3 -8 -5 -21 -5 -29 0 -12 -3 -12 -13 -2 -17 15 -11 45 9 45 9 0 13 -6 9
-14z m86 -6 c-10 -9 -11 -8 -5 6 3 10 9 15 12 12 3 -3 0 -11 -7 -18z m59 -6
c-7 -14 -7 -21 0 -21 18 0 11 -17 -9 -23 -17 -4 -18 -2 -10 20 5 14 6 29 3 35
-4 7 -2 8 4 4 7 -4 12 -2 12 5 0 7 3 10 6 7 3 -4 1 -16 -6 -27z m110 13 c0 -8
-4 -12 -10 -9 -5 3 -10 10 -10 16 0 5 5 9 10 9 6 0 10 -7 10 -16z m-207 -25
c-4 -15 -9 -17 -19 -8 -16 13 -7 40 11 33 7 -3 11 -14 8 -25z m-3613 -9 c11
-11 15 -20 9 -20 -6 0 -8 -7 -5 -16 7 -19 -11 -38 -40 -41 -29 -3 -31 44 -2
53 13 4 17 11 13 25 -8 24 0 24 25 -1z m156 2 c12 -9 24 -24 27 -32 3 -10 6
-7 6 8 1 13 5 21 11 17 6 -4 5 -14 -2 -29 -9 -21 -16 -24 -59 -22 -59 3 -70
11 -41 32 12 8 22 22 22 30 0 18 10 17 36 -4z m2874 8 c0 -5 -4 -10 -10 -10
-5 0 -10 5 -10 10 0 6 5 10 10 10 6 0 10 -4 10 -10z m160 0 c0 -5 -4 -10 -10
-10 -5 0 -10 5 -10 10 0 6 5 10 10 10 6 0 10 -4 10 -10z m-2690 -50 c0 -5 -4
-10 -10 -10 -5 0 -10 5 -10 10 0 6 5 10 10 10 6 0 10 -4 10 -10z m3105 -9 c-3
-6 -11 -11 -17 -11 -6 0 -6 6 2 15 14 17 26 13 15 -4z m220 9 c3 -5 1 -10 -4
-10 -6 0 -11 5 -11 10 0 6 2 10 4 10 3 0 8 -4 11 -10z m127 -62 c26 -8 37 -16
34 -25 -3 -8 -2 -11 3 -8 5 3 12 -4 16 -15 7 -20 25 -28 25 -10 0 6 5 10 11
10 6 0 9 -6 6 -14 -3 -8 2 -16 14 -19 15 -4 17 -10 10 -29 -4 -12 -13 -23 -20
-22 -6 1 -20 2 -31 3 -12 0 -20 8 -20 19 0 11 -9 27 -20 37 -11 10 -20 24 -20
32 0 7 -5 13 -11 13 -6 0 -9 -9 -6 -20 4 -15 0 -20 -14 -20 -10 0 -19 6 -19
14 0 8 -9 17 -19 21 -24 7 -36 35 -15 35 8 0 12 -4 9 -10 -4 -6 5 -10 22 -9
17 1 21 3 11 6 -10 2 -18 9 -18 14 0 12 5 11 52 -3z m-4362 -29 c0 -5 -4 -9
-10 -9 -5 0 -10 7 -10 16 0 8 5 12 10 9 6 -3 10 -10 10 -16z m90 -9 c0 -11 -4
-20 -10 -20 -5 0 -10 9 -10 20 0 11 5 20 10 20 6 0 10 -9 10 -20z m4176 -4 c1
-14 -4 -27 -12 -30 -17 -7 -19 25 -2 42 7 7 12 12 13 12 0 0 1 -11 1 -24z
m-3936 0 c0 -3 -4 -8 -10 -11 -5 -3 -10 -1 -10 4 0 6 5 11 10 11 6 0 10 -2 10
-4z m878 -45 c3 -8 0 -11 -5 -8 -13 8 -40 -26 -35 -42 3 -8 0 -11 -7 -7 -15 9
-14 49 1 64 16 16 40 12 46 -7z m-428 -17 c0 -19 17 -18 28 3 9 15 13 13 37
-13 22 -23 24 -30 11 -32 -9 -2 -16 -10 -16 -17 0 -8 -4 -16 -9 -19 -10 -7
-61 16 -61 27 0 5 -4 6 -9 2 -17 -10 -23 16 -11 45 12 30 30 32 30 4z m3595
16 c3 -5 2 -10 -4 -10 -5 0 -13 5 -16 10 -3 6 -2 10 4 10 5 0 13 -4 16 -10z
m-3905 -20 c0 -5 -2 -10 -4 -10 -3 0 -8 5 -11 10 -3 6 -1 10 4 10 6 0 11 -4
11 -10z m4058 -47 c-5 -24 -25 -27 -31 -3 -4 15 0 20 15 20 13 0 18 -6 16 -17z
m52 -49 c0 -15 -6 -24 -16 -24 -8 0 -12 5 -8 11 3 6 1 15 -6 19 -7 5 -10 15
-6 25 9 24 36 1 36 -31z m-3600 26 c0 -5 -4 -10 -10 -10 -5 0 -10 5 -10 10 0
6 5 10 10 10 6 0 10 -4 10 -10z m269 -32 c1 -5 -3 -8 -8 -8 -11 0 -21 37 -13
45 6 5 20 -19 21 -37z m56 22 c4 -6 11 -8 16 -5 5 4 9 2 9 -3 0 -5 -10 -12
-23 -14 -17 -3 -23 0 -23 14 0 20 11 24 21 8z m2955 0 c0 -5 -4 -10 -10 -10
-5 0 -10 5 -10 10 0 6 5 10 10 10 6 0 10 -4 10 -10z m532 -25 c3 -14 2 -25 -2
-25 -4 0 -10 11 -12 25 -3 14 -2 25 2 25 4 0 10 -11 12 -25z m-3792 0 c0 -17
-2 -18 -25 -9 -13 5 -14 8 -3 15 19 13 28 11 28 -6z m997 0 c0 -8 -4 -15 -9
-15 -10 0 -11 14 -1 23 9 10 10 9 10 -8z m-565 -11 c-13 -9 -26 -13 -30 -9 -8
8 17 25 38 25 9 0 6 -6 -8 -16z m-158 -19 c3 -9 0 -15 -8 -15 -8 0 -16 7 -20
15 -3 9 0 15 8 15 8 0 16 -7 20 -15z m3151 -34 c-6 -5 -25 10 -25 20 0 5 6 4
14 -3 8 -7 12 -15 11 -17z m200 19 c3 -5 1 -10 -4 -10 -6 0 -11 5 -11 10 0 6
2 10 4 10 3 0 8 -4 11 -10z m-3259 -35 c-10 -8 -15 -19 -11 -26 5 -7 3 -10 -5
-7 -23 7 -22 24 2 36 32 15 36 14 14 -3z m689 6 c-3 -5 -1 -12 5 -16 15 -9 47
-79 42 -93 -11 -33 -60 20 -53 57 2 8 -5 21 -16 28 -15 12 -16 15 -3 23 19 12
33 13 25 1z m145 -13 c0 -13 -23 -5 -28 10 -2 7 2 10 12 6 9 -3 16 -11 16 -16z
m2444 6 c4 -10 1 -14 -6 -12 -15 5 -23 28 -10 28 5 0 13 -7 16 -16z m-244 -4
c0 -5 -2 -10 -4 -10 -3 0 -8 5 -11 10 -3 6 -1 10 4 10 6 0 11 -4 11 -10z
m-3100 -9 c0 -5 -9 -13 -20 -16 -15 -5 -19 -12 -15 -26 4 -11 2 -19 -4 -19
-18 0 -13 42 7 56 20 16 32 18 32 5z m2475 -11 c3 -5 -1 -10 -9 -10 -9 0 -16
5 -16 10 0 6 4 10 9 10 6 0 13 -4 16 -10z m945 -54 c0 -9 -4 -16 -9 -16 -16 0
-33 29 -27 46 5 14 8 14 21 0 8 -8 15 -22 15 -30z m-3052 1 c3 -16 1 -17 -16
-8 -11 6 -22 7 -26 3 -4 -3 -4 2 0 11 8 23 38 18 42 -6z m3096 -35 c-6 -4 -13
-14 -16 -22 -3 -10 -6 -8 -10 8 -5 18 -2 22 15 22 13 0 17 -3 11 -8z m-461
-66 c-3 -4 -9 -2 -14 5 -13 22 -11 31 5 17 8 -7 12 -17 9 -22z m-3406 18 c-3
-3 -12 -4 -19 -1 -8 3 -5 6 6 6 11 1 17 -2 13 -5z m3889 -42 c-9 -8 -26 10
-26 26 1 15 2 15 15 -2 8 -11 13 -21 11 -24z m-2816 12 c0 -8 -4 -12 -10 -9
-5 3 -10 10 -10 16 0 5 5 9 10 9 6 0 10 -7 10 -16z m-50 -3 c0 -5 7 -11 16
-13 14 -3 13 -6 -4 -21 -20 -18 -21 -18 -32 2 -11 22 -6 41 11 41 5 0 9 -4 9
-9z m-40 -25 c0 -10 -21 -13 -50 -7 -3 1 4 8 14 16 20 15 36 12 36 -9z m-436
-12 c4 -12 1 -14 -13 -9 -14 4 -21 0 -24 -12 -4 -15 -5 -14 -6 4 -1 19 9 30
30 32 4 1 10 -6 13 -15z m661 -13 c3 -5 1 -12 -5 -16 -5 -3 -10 1 -10 9 0 18
6 21 15 7z"/>
<path d="M4590 1789 c0 -5 5 -7 10 -4 6 3 10 8 10 11 0 2 -4 4 -10 4 -5 0 -10
-5 -10 -11z"/>
<path d="M4801 1656 c-14 -17 8 -29 30 -15 11 7 11 9 1 9 -7 0 -10 5 -7 10 9
15 -11 12 -24 -4z"/>
<path d="M4850 1630 c0 -5 5 -10 10 -10 6 0 10 5 10 10 0 6 -4 10 -10 10 -5 0
-10 -4 -10 -10z"/>
<path d="M1430 1839 c0 -11 5 -17 10 -14 6 3 10 13 10 21 0 8 -4 14 -10 14 -5
0 -10 -9 -10 -21z"/>
<path d="M5205 1820 c3 -5 8 -10 11 -10 2 0 4 5 4 10 0 6 -5 10 -11 10 -5 0
-7 -4 -4 -10z"/>
<path d="M5582 1800 c0 -14 2 -19 5 -12 2 6 2 18 0 25 -3 6 -5 1 -5 -13z"/>
<path d="M5604 1778 c-5 -7 -9 -32 -9 -54 -1 -33 -7 -47 -30 -68 -30 -26 -30
-26 -4 -15 21 9 33 8 58 -5 17 -9 31 -22 31 -28 0 -21 31 -46 51 -41 16 5 17
8 7 21 -11 13 -10 15 6 9 13 -5 17 -3 13 7 -3 7 3 23 14 35 11 12 17 22 14 22
-3 1 -9 3 -15 4 -5 1 -14 3 -20 4 -5 0 -10 8 -10 16 0 8 -4 15 -10 15 -5 0
-10 4 -10 10 0 9 -30 41 -62 68 -13 11 -18 11 -24 0z"/>
<path d="M5428 1738 c-23 -34 -17 -46 28 -51 16 -2 35 -7 42 -11 7 -4 12 -2
12 4 0 6 10 14 21 19 20 7 19 9 -15 29 -20 12 -36 25 -36 30 0 20 -32 7 -52
-20z"/>
<path d="M5751 1758 c0 -11 -9 -18 -21 -18 -23 0 -27 -15 -7 -23 22 -8 39 9
34 34 -2 14 -5 17 -6 7z"/>
<path d="M5750 1625 c0 -8 5 -15 10 -15 6 0 10 7 10 15 0 8 -4 15 -10 15 -5 0
-10 -7 -10 -15z"/>
<path d="M5366 1605 c-3 -8 -1 -15 4 -15 6 0 10 7 10 15 0 8 -2 15 -4 15 -2 0
-6 -7 -10 -15z"/>
<path d="M5590 1611 c0 -5 -10 -12 -22 -14 -17 -3 -15 -5 9 -6 17 0 33 -7 36
-13 4 -10 7 -10 17 -1 11 10 11 15 0 28 -14 16 -40 20 -40 6z"/>
<path d="M5470 1566 c0 -2 7 -7 16 -10 8 -3 12 -2 9 4 -6 10 -25 14 -25 6z"/>
<path d="M5325 1550 c3 -5 8 -10 11 -10 2 0 4 5 4 10 0 6 -5 10 -11 10 -5 0
-7 -4 -4 -10z"/>
<path d="M5660 1539 c0 -5 -12 -15 -27 -24 -27 -15 -27 -16 -3 -9 14 3 30 7
35 8 23 3 32 33 10 33 -8 0 -15 -4 -15 -8z"/>
<path d="M5520 1494 c0 -8 5 -12 10 -9 6 4 8 11 5 16 -9 14 -15 11 -15 -7z"/>
<path d="M5546 1472 c-4 -7 -12 -9 -18 -6 -7 4 -8 2 -4 -5 4 -6 11 -9 16 -6 4
3 10 -5 13 -17 4 -12 8 -20 11 -17 3 3 2 18 -2 34 -6 19 -11 25 -16 17z"/>
<path d="M5090 1133 c1 -20 17 -29 40 -23 l25 7 -28 12 c-33 13 -37 13 -37 4z"/>
<path d="M1530 660 c0 -5 7 -10 16 -10 8 0 12 5 9 10 -3 6 -10 10 -16 10 -5 0
-9 -4 -9 -10z"/>
<path d="M1980 475 c-7 -9 -11 -18 -8 -20 3 -3 11 1 18 10 7 9 11 18 8 20 -3
3 -11 -1 -18 -10z"/>
<path d="M2466 3861 c-4 -7 -5 -15 -2 -18 9 -9 19 4 14 18 -4 11 -6 11 -12 0z"/>
<path d="M315 3790 c4 -6 11 -8 16 -5 14 9 11 15 -7 15 -8 0 -12 -5 -9 -10z"/>
<path d="M3220 3776 c0 -2 7 -6 15 -10 8 -3 15 -1 15 4 0 6 -7 10 -15 10 -8 0
-15 -2 -15 -4z"/>
<path d="M3215 3740 c3 -5 8 -10 11 -10 2 0 4 5 4 10 0 6 -5 10 -11 10 -5 0
-7 -4 -4 -10z"/>
<path d="M3248 3719 c-17 -18 -17 -19 1 -19 10 0 21 9 24 20 6 25 -2 24 -25
-1z"/>
<path d="M2655 3671 c-3 -5 -1 -12 5 -16 5 -3 10 1 10 9 0 18 -6 21 -15 7z"/>
<path d="M3345 3630 c3 -5 8 -10 11 -10 2 0 4 5 4 10 0 6 -5 10 -11 10 -5 0
-7 -4 -4 -10z"/>
<path d="M4565 3570 c4 -6 11 -8 16 -5 14 9 11 15 -7 15 -8 0 -12 -5 -9 -10z"/>
<path d="M4605 3570 c-3 -6 1 -7 9 -4 18 7 21 14 7 14 -6 0 -13 -4 -16 -10z"/>
<path d="M400 3521 c0 -14 29 -22 58 -14 l27 7 -25 7 c-36 10 -60 10 -60 0z"/>
<path d="M2952 3521 c-11 -7 -11 -9 1 -14 16 -6 27 0 27 15 0 10 -11 10 -28
-1z"/>
<path d="M3790 3520 c0 -5 5 -10 11 -10 5 0 7 5 4 10 -3 6 -8 10 -11 10 -2 0
-4 -4 -4 -10z"/>
<path d="M4526 3515 c-9 -23 -8 -24 14 -18 12 3 19 10 17 16 -6 18 -24 19 -31
2z"/>
<path d="M4701 3514 c0 -11 3 -14 6 -6 3 7 2 16 -1 19 -3 4 -6 -2 -5 -13z"/>
<path d="M3910 3476 c0 -8 -6 -17 -12 -19 -7 -3 -3 -6 9 -6 16 -1 20 3 16 19
-6 23 -13 26 -13 6z"/>
<path d="M4143 3463 c-18 -7 -16 -23 2 -23 8 0 15 7 15 15 0 8 -1 15 -2 14 -2
0 -9 -3 -15 -6z"/>
<path d="M2320 3425 c0 -9 5 -15 11 -13 6 2 11 8 11 13 0 5 -5 11 -11 13 -6 2
-11 -4 -11 -13z"/>
<path d="M3150 3380 c0 -5 9 -10 20 -10 11 0 23 0 27 -1 4 0 9 4 11 10 2 6
-10 11 -27 11 -17 0 -31 -4 -31 -10z"/>
<path d="M4016 3361 c-4 -7 -5 -15 -2 -18 9 -9 19 4 14 18 -4 11 -6 11 -12 0z"/>
<path d="M1840 3350 c0 -5 -8 -10 -17 -10 -16 -1 -16 -2 1 -11 14 -9 20 -8 26
1 4 7 13 9 19 6 6 -4 11 -3 11 2 0 6 -7 13 -16 16 -21 8 -24 8 -24 -4z"/>
<path d="M2464 3324 c3 -9 6 -20 6 -25 0 -5 7 -9 15 -9 8 0 15 5 15 10 0 6 -4
10 -10 10 -5 0 -10 7 -10 15 0 8 -5 15 -11 15 -6 0 -8 -7 -5 -16z"/>
<path d="M2325 3319 c-10 -15 1 -23 20 -15 9 3 13 10 10 16 -8 13 -22 13 -30
-1z"/>
<path d="M1895 3310 c3 -5 11 -10 16 -10 6 0 7 5 4 10 -3 6 -11 10 -16 10 -6
0 -7 -4 -4 -10z"/>
<path d="M3630 3304 c0 -8 5 -12 10 -9 6 3 10 10 10 16 0 5 -4 9 -10 9 -5 0
-10 -7 -10 -16z"/>
<path d="M1830 3299 c0 -6 9 -13 20 -16 11 -3 20 -9 20 -14 0 -5 6 -8 12 -6 8
1 12 -8 10 -25 -2 -16 1 -28 7 -28 6 0 8 7 4 16 -3 9 0 20 7 24 8 5 10 15 6
26 -5 14 -9 15 -15 6 -6 -9 -13 -7 -31 8 -26 22 -40 26 -40 9z"/>
<path d="M3562 3281 c-10 -6 -10 -10 3 -21 19 -15 25 -11 16 12 -4 11 -11 14
-19 9z"/>
<path d="M3665 3270 c-3 -5 -1 -10 4 -10 6 0 11 5 11 10 0 6 -2 10 -4 10 -3 0
-8 -4 -11 -10z"/>
<path d="M1930 3260 c0 -5 5 -10 10 -10 6 0 10 5 10 10 0 6 -4 10 -10 10 -5 0
-10 -4 -10 -10z"/>
<path d="M2445 3259 c-4 -6 -5 -12 -2 -15 2 -3 7 2 10 11 7 17 1 20 -8 4z"/>
<path d="M615 3250 c-3 -5 1 -10 9 -10 9 0 16 5 16 10 0 6 -4 10 -9 10 -6 0
-13 -4 -16 -10z"/>
<path d="M3596 3232 c-3 -5 1 -9 9 -9 8 0 15 4 15 9 0 4 -4 8 -9 8 -6 0 -12
-4 -15 -8z"/>
<path d="M3667 3211 c-4 -17 -1 -17 29 -8 42 13 44 27 5 27 -20 0 -30 -6 -34
-19z"/>
<path d="M737 3192 c-7 -34 -4 -36 30 -27 21 6 23 9 11 12 -10 3 -18 11 -18
18 0 27 -18 24 -23 -3z"/>
<path d="M2516 3204 c-9 -22 -8 -24 9 -24 8 0 15 9 15 20 0 24 -15 27 -24 4z"/>
<path d="M4010 3210 c0 -5 5 -10 10 -10 6 0 10 5 10 10 0 6 -4 10 -10 10 -5 0
-10 -4 -10 -10z"/>
<path d="M4369 3193 c-13 -15 -12 -15 9 -4 23 12 28 21 13 21 -5 0 -15 -7 -22
-17z"/>
<path d="M2230 3192 c0 -6 -3 -17 -6 -26 -3 -9 -1 -16 6 -16 15 0 44 29 36 37
-3 4 -6 3 -6 -2 0 -4 -7 -2 -15 5 -9 8 -15 8 -15 2z"/>
<path d="M590 3152 c0 -10 6 -24 13 -30 6 -7 12 -18 12 -25 0 -6 12 -13 28
-14 30 -2 38 21 11 31 -9 4 -14 9 -11 13 6 5 -35 43 -47 43 -3 0 -6 -8 -6 -18z"/>
<path d="M2293 3155 c-2 -7 -15 -16 -29 -19 -13 -4 -24 -11 -24 -17 0 -6 7 -9
14 -6 11 4 13 1 9 -11 -6 -14 -5 -15 9 -2 9 8 14 17 12 19 -11 11 21 30 42 25
13 -3 24 -2 24 4 0 15 -51 22 -57 7z"/>
<path d="M2420 3155 c-20 -24 -6 -28 15 -5 10 11 13 20 8 20 -6 0 -16 -7 -23
-15z"/>
<path d="M3657 3156 c-15 -7 -24 -15 -20 -19 11 -11 12 -37 2 -37 -5 0 -9 -4
-9 -9 0 -5 11 -8 25 -8 18 0 25 5 25 18 0 11 -5 19 -11 19 -6 0 -3 7 5 16 13
13 23 36 14 33 -2 0 -15 -6 -31 -13z"/>
<path d="M785 3140 c3 -5 8 -10 11 -10 2 0 4 5 4 10 0 6 -5 10 -11 10 -5 0 -7
-4 -4 -10z"/>
<path d="M3557 3128 c-3 -8 5 -14 20 -14 13 -1 23 -1 21 0 -2 1 -10 7 -19 14
-13 10 -18 10 -22 0z"/>
<path d="M690 3120 c-13 -8 -12 -10 3 -10 9 0 17 5 17 10 0 12 -1 12 -20 0z"/>
<path d="M2305 3121 c-4 -7 4 -11 19 -11 16 0 26 -6 26 -15 0 -8 -7 -15 -15
-15 -9 0 -20 -12 -25 -26 -8 -20 -6 -29 7 -42 12 -12 18 -13 21 -4 2 7 8 10
12 7 5 -3 18 0 28 6 19 12 19 12 -1 32 -20 20 -20 20 4 38 13 10 22 20 19 22
-12 12 -88 18 -95 8z"/>
<path d="M3694 3103 c-4 -18 -12 -33 -19 -33 -8 0 -10 -9 -7 -25 4 -24 22 -36
22 -15 0 6 7 10 16 10 13 0 14 -3 5 -14 -7 -8 -8 -17 -3 -20 30 -18 40 69 12
104 l-19 25 -7 -32z"/>
<path d="M3831 3113 c-7 -8 -11 -16 -8 -19 2 -2 10 2 17 11 17 20 9 27 -9 8z"/>
<path d="M1810 3070 c0 -5 5 -10 10 -10 6 0 10 5 10 10 0 6 -4 10 -10 10 -5 0
-10 -4 -10 -10z"/>
<path d="M3450 3065 c-9 -10 -9 -15 -1 -15 6 0 11 -5 11 -11 0 -5 -4 -7 -10
-4 -5 3 -10 1 -10 -4 0 -6 9 -11 20 -11 25 0 44 32 28 48 -16 16 -23 15 -38
-3z"/>
<path d="M2140 3050 c0 -5 5 -10 10 -10 6 0 10 5 10 10 0 6 -4 10 -10 10 -5 0
-10 -4 -10 -10z"/>
<path d="M2497 3044 c-5 -5 -28 -11 -49 -13 -4 -1 0 -10 9 -21 29 -34 73 -22
73 20 0 10 -26 21 -33 14z"/>
<path d="M3384 3012 c1 -28 -3 -36 -14 -34 -12 3 -13 1 -3 -9 11 -10 16 -9 28
7 8 10 13 24 10 31 -2 6 3 13 12 15 13 2 10 6 -9 15 -25 11 -26 11 -24 -25z"/>
<path d="M3540 3041 c0 -5 7 -11 14 -14 10 -4 13 -1 9 9 -6 15 -23 19 -23 5z"/>
<path d="M3588 3033 c7 -3 16 -2 19 1 4 3 -2 6 -13 5 -11 0 -14 -3 -6 -6z"/>
<path d="M1807 3023 c-10 -10 -8 -23 4 -23 5 0 8 4 5 9 -4 5 0 12 6 14 7 3 8
6 2 6 -6 1 -14 -2 -17 -6z"/>
<path d="M2136 3022 c-8 -13 5 -53 15 -46 12 7 12 41 0 49 -5 3 -12 2 -15 -3z"/>
<path d="M2275 2990 c-3 -5 -2 -10 4 -10 5 0 13 5 16 10 3 6 2 10 -4 10 -5 0
-13 -4 -16 -10z"/>
<path d="M3636 2981 c-3 -5 1 -11 9 -15 9 -3 15 0 15 9 0 16 -16 20 -24 6z"/>
<path d="M2282 2961 c-11 -7 -11 -9 1 -14 16 -6 27 0 27 15 0 10 -11 10 -28
-1z"/>
<path d="M3323 2956 c0 -8 6 -12 14 -9 7 3 13 9 13 14 0 5 -6 9 -13 9 -8 0
-14 -6 -14 -14z"/>
<path d="M2265 2911 c-12 -12 -2 -17 25 -13 17 2 30 7 30 11 0 8 -48 10 -55 2z"/>
<path d="M1727 2899 c-10 -6 -21 -8 -24 -6 -3 3 -15 -3 -26 -14 -19 -17 -20
-21 -7 -29 9 -6 16 -6 18 0 2 6 10 10 18 10 8 0 14 4 14 10 0 5 8 7 18 4 13
-5 14 -4 3 4 -7 5 -9 12 -4 15 13 8 34 -38 27 -57 -5 -13 -2 -13 20 -3 l26 12
-23 17 c-12 10 -18 18 -13 18 5 0 3 7 -4 15 -15 18 -19 18 -43 4z"/>
<path d="M3690 2829 c0 -5 5 -7 10 -4 6 3 10 8 10 11 0 2 -4 4 -10 4 -5 0 -10
-5 -10 -11z"/>
<path d="M990 2756 c0 -2 7 -7 16 -10 8 -3 12 -2 9 4 -6 10 -25 14 -25 6z"/>
<path d="M920 2725 c0 -7 39 -12 49 -5 7 4 -1 7 -18 8 -17 0 -31 -1 -31 -3z"/>
<path d="M940 2680 c0 -5 5 -10 10 -10 6 0 10 5 10 10 0 6 -4 10 -10 10 -5 0
-10 -4 -10 -10z"/>
<path d="M3977 1993 c-4 -3 -7 -11 -7 -17 0 -6 5 -5 12 2 6 6 9 14 7 17 -3 3
-9 2 -12 -2z"/>
<path d="M2460 1959 c0 -5 5 -7 10 -4 6 3 10 8 10 11 0 2 -4 4 -10 4 -5 0 -10
-5 -10 -11z"/>
<path d="M3940 1949 c0 -5 5 -7 10 -4 6 3 10 8 10 11 0 2 -4 4 -10 4 -5 0 -10
-5 -10 -11z"/>
<path d="M3520 1934 c0 -8 5 -12 10 -9 6 4 8 11 5 16 -9 14 -15 11 -15 -7z"/>
<path d="M3880 1939 c0 -5 5 -7 10 -4 6 3 10 8 10 11 0 2 -4 4 -10 4 -5 0 -10
-5 -10 -11z"/>
<path d="M2175 1850 c9 -30 13 -35 21 -27 3 3 -2 16 -11 29 l-17 23 7 -25z"/>
<path d="M3310 1746 c0 -3 9 -21 21 -40 23 -39 46 -46 56 -18 4 9 11 21 17 25
7 6 5 7 -5 4 -9 -3 -24 4 -34 15 -14 17 -19 18 -26 7 -6 -10 -9 -10 -9 -1 0 6
-4 12 -10 12 -5 0 -10 -2 -10 -4z"/>
<path d="M1730 1721 c0 -11 42 -43 48 -37 2 3 -1 14 -8 25 -11 21 -40 29 -40
12z"/>
<path d="M2535 1550 c-3 -6 -1 -10 4 -10 16 0 13 -30 -2 -36 -8 -3 -14 -11
-14 -18 0 -11 5 -12 23 -4 17 8 27 8 39 -2 13 -11 19 -10 35 5 11 10 20 13 20
7 0 -7 7 -12 15 -12 23 0 18 14 -12 27 -19 9 -30 10 -40 2 -10 -9 -13 -8 -13
4 0 19 -47 50 -55 37z"/>
<path d="M3793 1425 c0 -8 4 -15 9 -15 4 0 8 4 8 9 0 6 -4 12 -8 15 -5 3 -9
-1 -9 -9z"/>
<path d="M3500 1361 c0 -13 26 -32 33 -24 8 7 -11 33 -24 33 -5 0 -9 -4 -9 -9z"/>
<path d="M4015 1330 c-3 -5 -1 -10 4 -10 6 0 11 5 11 10 0 6 -2 10 -4 10 -3 0
-8 -4 -11 -10z"/>
<path d="M4040 1330 c0 -5 5 -10 10 -10 6 0 10 5 10 10 0 6 -4 10 -10 10 -5 0
-10 -4 -10 -10z"/>
<path d="M1530 1310 c0 -11 4 -20 9 -20 5 0 7 9 4 20 -3 11 -7 20 -9 20 -2 0
-4 -9 -4 -20z"/>
<path d="M2445 1300 c3 -5 15 -10 26 -10 10 0 19 5 19 10 0 6 -12 10 -26 10
-14 0 -23 -4 -19 -10z"/>
<path d="M3795 1290 c5 -14 2 -20 -9 -20 -9 0 -16 -5 -16 -11 0 -5 4 -8 8 -5
4 3 16 -11 27 -30 21 -40 30 -43 39 -11 11 41 6 66 -16 81 -30 21 -41 20 -33
-4z m45 -51 c0 -11 -4 -18 -10 -14 -5 3 -7 12 -3 20 7 21 13 19 13 -6z"/>
<path d="M1557 1230 c7 -26 29 -44 38 -30 3 5 2 10 -3 10 -5 0 -12 9 -15 20
-3 11 -10 20 -15 20 -6 0 -8 -9 -5 -20z"/>
<path d="M1520 1225 c0 -8 7 -15 16 -15 14 0 14 3 4 15 -7 8 -14 15 -16 15 -2
0 -4 -7 -4 -15z"/>
<path d="M4632 1228 c2 -6 10 -14 16 -16 7 -2 10 2 6 12 -7 18 -28 22 -22 4z"/>
<path d="M3216 1204 c-9 -8 -19 -14 -23 -14 -4 1 -9 -3 -11 -9 -3 -9 43 -26
93 -33 11 -2 26 -7 33 -11 6 -5 16 -6 21 -3 5 3 16 -6 26 -20 11 -18 23 -24
36 -21 10 3 19 0 19 -6 1 -11 49 -53 53 -45 1 1 8 13 14 25 11 19 9 24 -15 43
-16 13 -36 20 -49 17 -13 -2 -23 -1 -23 3 0 4 -16 11 -35 14 -19 4 -35 11 -35
15 0 5 -13 14 -30 20 -16 5 -30 14 -30 19 0 18 -29 21 -44 6z"/>
<path d="M3640 1166 c0 -9 39 -46 49 -46 19 0 -5 37 -29 43 -11 3 -20 4 -20 3z"/>
<path d="M2315 1110 c3 -5 8 -10 11 -10 2 0 4 5 4 10 0 6 -5 10 -11 10 -5 0
-7 -4 -4 -10z"/>
<path d="M4840 1111 c0 -5 9 -11 19 -14 14 -3 18 -1 14 9 -6 15 -33 19 -33 5z"/>
<path d="M4741 1054 c-7 -8 -10 -18 -7 -21 7 -7 36 16 36 28 0 13 -13 10 -29
-7z"/>
<path d="M3520 1030 c0 -5 -9 -10 -20 -10 -13 0 -18 -5 -14 -15 4 -8 15 -15
25 -15 14 0 19 7 19 25 0 14 -2 25 -5 25 -3 0 -5 -4 -5 -10z"/>
<path d="M3625 880 c-3 -6 1 -7 9 -4 18 7 21 14 7 14 -6 0 -13 -4 -16 -10z"/>
<path d="M1990 860 c20 -13 33 -13 25 0 -3 6 -14 10 -23 10 -15 0 -15 -2 -2
-10z"/>
<path d="M3444 841 c9 -14 -5 -43 -19 -37 -18 7 -105 -14 -105 -26 0 -6 -10
-8 -24 -4 -18 4 -33 -1 -55 -20 -17 -14 -28 -30 -25 -36 4 -6 10 -5 15 3 4 7
11 10 15 6 4 -4 12 -3 18 2 18 14 76 22 76 10 0 -6 5 -7 10 -4 6 3 10 1 10 -5
0 -12 61 -41 72 -34 19 12 5 24 -27 24 -19 0 -35 5 -35 11 0 5 5 7 10 4 6 -3
17 1 26 9 9 9 11 16 4 16 -6 0 -8 5 -4 11 4 7 10 7 16 1 6 -6 17 -8 24 -5 9 3
14 -2 14 -13 0 -15 2 -16 9 -5 7 11 25 14 65 12 35 -1 56 2 56 8 0 6 -6 11
-13 11 -8 0 -13 10 -13 23 1 19 -5 22 -42 25 -34 3 -42 0 -37 -10 5 -7 -2 -3
-14 10 -22 22 -37 30 -27 13z"/>
<path d="M3150 710 c0 -11 6 -20 14 -20 24 0 28 18 6 30 -17 9 -20 8 -20 -10z"/>
<path d="M3840 705 c0 -9 6 -12 15 -9 8 4 15 7 15 9 0 2 -7 5 -15 9 -9 3 -15
0 -15 -9z"/>
<path d="M3086 694 c-24 -24 -39 -54 -26 -54 5 0 10 7 10 16 0 11 6 15 19 11
15 -3 18 1 17 19 -1 28 0 28 -20 8z"/>
<path d="M4780 685 c0 -8 4 -15 10 -15 5 0 7 7 4 15 -4 8 -8 15 -10 15 -2 0
-4 -7 -4 -15z"/>
<path d="M4400 686 c0 -2 7 -9 15 -16 12 -10 15 -10 15 4 0 9 -7 16 -15 16 -8
0 -15 -2 -15 -4z"/>
<path d="M4490 644 c0 -7 27 -34 34 -34 13 0 5 16 -14 28 -11 7 -20 10 -20 6z"/>
<path d="M5260 578 c0 -19 2 -20 10 -8 13 19 13 30 0 30 -5 0 -10 -10 -10 -22z"/>
<path d="M5876 555 c-10 -27 -7 -35 13 -35 28 0 33 15 12 34 -17 15 -19 16
-25 1z"/>
<path d="M3230 520 c0 -5 5 -10 10 -10 6 0 10 5 10 10 0 6 -4 10 -10 10 -5 0
-10 -4 -10 -10z"/>
<path d="M3000 461 c0 -6 5 -13 10 -16 6 -3 10 1 10 9 0 9 -4 16 -10 16 -5 0
-10 -4 -10 -9z"/>
<path d="M3350 441 c0 -5 9 -7 20 -4 11 3 20 7 20 9 0 2 -9 4 -20 4 -11 0 -20
-4 -20 -9z"/>
<path d="M4800 400 c0 -5 5 -10 10 -10 6 0 10 5 10 10 0 6 -4 10 -10 10 -5 0
-10 -4 -10 -10z"/>
<path d="M4406 388 c3 -4 9 -8 15 -8 5 0 9 4 9 8 0 5 -7 9 -15 9 -8 0 -12 -4
-9 -9z"/>
<path d="M4848 363 c7 -3 16 -2 19 1 4 3 -2 6 -13 5 -11 0 -14 -3 -6 -6z"/>
<path d="M4505 340 c3 -5 8 -10 11 -10 2 0 4 5 4 10 0 6 -5 10 -11 10 -5 0 -7
-4 -4 -10z"/>
<path d="M5345 330 c-4 -6 3 -10 14 -10 25 0 27 6 6 13 -8 4 -17 2 -20 -3z"/>
<path d="M2314 311 c0 -12 4 -21 9 -21 4 0 14 0 22 0 8 0 15 7 15 16 0 10 -6
14 -14 11 -7 -3 -18 -1 -23 4 -7 7 -10 3 -9 -10z"/>
<path d="M4970 315 c0 -8 7 -15 15 -15 8 0 15 4 15 9 0 5 -7 11 -15 15 -9 3
-15 0 -15 -9z"/>
<path d="M2587 289 c4 -13 8 -18 11 -10 2 7 -1 18 -6 23 -8 8 -9 4 -5 -13z"/>
<path d="M5158 293 c7 -3 16 -2 19 1 4 3 -2 6 -13 5 -11 0 -14 -3 -6 -6z"/>
<path d="M5020 271 c0 -5 7 -11 15 -15 8 -3 15 -1 15 3 0 5 -7 11 -15 15 -8 3
-15 1 -15 -3z"/>
<path d="M5090 261 c0 -5 5 -13 10 -16 6 -3 10 -2 10 4 0 5 -4 13 -10 16 -5 3
-10 2 -10 -4z"/>
<path d="M5075 230 c3 -5 8 -10 11 -10 2 0 4 5 4 10 0 6 -5 10 -11 10 -5 0 -7
-4 -4 -10z"/>
<path d="M2326 214 c-8 -22 -8 -24 8 -24 9 0 14 9 13 20 -2 24 -13 26 -21 4z"/>
<path d="M2670 184 c0 -8 5 -12 10 -9 6 4 8 11 5 16 -9 14 -15 11 -15 -7z"/>
<path d="M4505 150 c-4 -6 -10 -8 -14 -5 -5 2 -13 -7 -19 -20 -7 -14 -16 -25
-22 -25 -6 0 -30 -9 -55 -21 -24 -11 -49 -18 -55 -14 -5 3 -10 1 -10 -4 0 -19
-22 -12 -27 9 -6 22 -18 26 -28 10 -4 -6 -23 -8 -43 -5 -25 3 -30 2 -18 -3 18
-8 18 -9 2 -15 -29 -11 -54 -8 -70 9 -15 14 -16 14 -16 -5 0 -20 -19 -27 -59
-21 -8 1 -17 -3 -20 -8 -6 -9 -102 16 -117 31 -13 13 -48 7 -72 -11 -22 -17
-22 -19 -7 -32 13 -11 18 -11 24 -2 6 10 14 9 37 -3 44 -23 808 -22 832 1 13
13 13 17 1 25 -8 5 -21 9 -29 9 -13 0 -13 1 0 10 8 5 10 10 5 10 -6 0 -15 10
-20 22 -7 14 -20 22 -40 24 -16 1 -24 0 -17 -3 25 -10 1 -21 -27 -13 -23 6
-31 5 -35 -7 -9 -22 -7 -25 7 -17 6 3 -1 -5 -17 -20 -33 -30 -46 -33 -46 -11
0 8 -5 24 -12 35 -10 15 -9 22 6 39 10 11 15 25 11 30 -8 14 -22 14 -30 1z
m190 -78 c-3 -3 -11 0 -18 7 -9 10 -8 11 6 5 10 -3 15 -9 12 -12z m-35 -7 c0
-1 -12 -2 -26 -2 -17 0 -22 2 -13 7 10 7 39 3 39 -5z"/>
<path d="M2341 104 c-1 -28 9 -36 25 -19 18 18 18 29 0 22 -8 -3 -17 -1 -20 6
-2 7 -5 3 -5 -9z"/>
<path d="M5578 93 c7 -3 16 -2 19 1 4 3 -2 6 -13 5 -11 0 -14 -3 -6 -6z"/>
<path d="M2337 36 c-3 -8 -2 -18 3 -21 13 -8 20 9 11 24 -6 10 -10 9 -14 -3z"/>
<path d="M210 10 c0 -5 5 -10 11 -10 5 0 7 5 4 10 -3 6 -8 10 -11 10 -2 0 -4
-4 -4 -10z"/>
</g>
</svg>
